<svg width="232" height="60" viewBox="0 0 232 60" fill="none" xmlns="http://www.w3.org/2000/svg">
<g clip-path="url(#clip0_1251_1785)">
<path d="M52.3461 52.3088H7.76453V8.14528H38.291V0.454102H0V60H60.1107V30.1466H52.3461V52.3088Z" fill="#8D9986"/>
<path d="M56.3827 17.1009H56.1917L51.1873 0.551758H43.7029L51.7603 24.2307H60.8173L68.8716 0.551758H61.3904L56.3827 17.1009Z" fill="#8D9986"/>
<path d="M101.668 12.7209C100.982 12.0444 100.183 11.4907 99.3058 11.0843C98.2 10.574 97.0359 10.1981 95.839 9.96484L93.8366 9.53913C93.3232 9.44119 92.8169 9.30951 92.3212 9.14495C91.9557 9.02186 91.6079 8.85226 91.2866 8.64041C91.0397 8.48181 90.8363 8.26514 90.6945 8.00972C90.571 7.76694 90.516 7.49568 90.5353 7.22452C90.5353 6.88337 90.647 6.55142 90.8536 6.2785C91.1009 5.97266 91.4328 5.74475 91.8087 5.62259C92.3481 5.44497 92.915 5.36278 93.4832 5.37978C94.5571 5.37978 95.3583 5.60051 95.8867 6.04199C96.1551 6.27183 96.3727 6.55398 96.526 6.87083C96.6794 7.18768 96.7652 7.53243 96.7781 7.88359H103.145C103.17 6.4151 102.758 4.97175 101.961 3.73369C101.14 2.51699 99.9829 1.56016 98.6277 0.97761C97.0106 0.288906 95.262 -0.044595 93.5023 5.19957e-05C91.7434 -0.0333246 89.9969 0.296369 88.3737 0.96815C86.9805 1.53458 85.7698 2.46677 84.8718 3.66432C84.0243 4.83842 83.5872 6.25468 83.6271 7.69754C83.6271 9.58958 84.2447 11.079 85.4799 12.1659C86.7151 13.2528 88.413 14.0296 90.5735 14.4963L93.0025 15.0166C93.7397 15.162 94.4621 15.3731 95.1609 15.6473C95.606 15.8019 96.0075 16.0591 96.3324 16.3978C96.5656 16.6703 96.6951 17.015 96.6985 17.3722C96.6922 17.7545 96.5578 18.1239 96.3165 18.4223C96.0281 18.7561 95.6525 19.0049 95.2309 19.1413C94.6586 19.3299 94.0575 19.4185 93.4545 19.403C92.7105 19.42 91.9708 19.2869 91.2802 19.012C90.704 18.7792 90.2115 18.3805 89.8667 17.8673C89.5171 17.3048 89.3238 16.6608 89.3064 16.0005H83.0159C83.0159 18.025 83.4552 19.6837 84.3338 20.9766C85.225 22.2906 86.5083 23.2961 88.0044 23.8525C89.7759 24.5124 91.6577 24.8334 93.55 24.7985C95.359 24.8409 97.1599 24.5478 98.8601 23.9345C100.22 23.4429 101.404 22.5655 102.263 21.4117C103.081 20.2254 103.501 18.8144 103.463 17.3785C103.466 16.5068 103.316 15.6413 103.018 14.8211C102.722 14.0348 102.262 13.3192 101.668 12.7209Z" fill="#8D9986"/>
<path d="M128.053 19.2357C129.114 17.392 129.644 15.1236 129.644 12.4306C129.644 9.73759 129.114 7.46923 128.053 5.62554C127.067 3.84389 125.581 2.38372 123.774 1.42204C121.909 0.487142 119.849 0 117.759 0C115.669 0 113.608 0.487142 111.744 1.42204C109.941 2.38076 108.459 3.83649 107.475 5.61293C106.413 7.45662 105.883 9.72498 105.883 12.418C105.883 15.111 106.413 17.372 107.475 19.201C108.459 20.9791 109.94 22.4385 111.74 23.4045C113.595 24.3762 115.666 24.8697 117.764 24.8393C119.192 24.8445 120.612 24.6165 121.966 24.1645L123.838 26.3025H129.702L125.964 21.8467C126.791 21.0868 127.495 20.2063 128.053 19.2357ZM122.246 16.0823C122.118 16.411 121.96 16.7276 121.775 17.0283L120.584 15.5462H115.43L118.149 19.1095C118.021 19.1095 117.9 19.1348 117.767 19.1348C116.785 19.186 115.814 18.9145 115.005 18.3624C114.195 17.8103 113.593 17.0087 113.291 16.0823C112.876 14.9044 112.681 13.6618 112.715 12.4148C112.681 11.1689 112.876 9.92735 113.291 8.75057C113.613 7.84012 114.208 7.04899 114.997 6.48327C115.831 5.97797 116.789 5.71058 117.767 5.71058C118.744 5.71058 119.703 5.97797 120.536 6.48327C121.327 7.04935 121.924 7.8417 122.246 8.75373C122.66 9.9305 122.856 11.1721 122.822 12.418C122.855 13.6639 122.66 14.9054 122.246 16.0823Z" fill="#8D9986"/>
<path d="M147.179 15.253C147.192 15.9513 147.02 16.6406 146.679 17.2523C146.355 17.8286 145.877 18.3054 145.298 18.6303C144.674 18.9554 143.98 19.1253 143.275 19.1253C142.57 19.1253 141.875 18.9554 141.252 18.6303C140.669 18.3075 140.188 17.8303 139.864 17.2523C139.523 16.6406 139.351 15.9513 139.364 15.253V0.331055H132.752V15.8206C132.687 17.4811 133.13 19.1224 134.023 20.5291C134.916 21.9359 136.217 23.0426 137.756 23.7042C139.504 24.4271 141.38 24.7993 143.275 24.7993C145.169 24.7993 147.045 24.4271 148.793 23.7042C150.299 23.0373 151.581 21.9586 152.489 20.5949C153.401 19.1692 153.864 17.5075 153.82 15.8206V0.331055H147.179V15.253Z" fill="#8D9986"/>
<path d="M162.562 0.331055L154.504 24.5083H161.655L163.065 19.8665H171.113L172.523 24.4957H179.676L171.619 0.331055H162.562ZM164.564 14.9692L166.993 6.98791H167.184L169.616 14.9692H164.564Z" fill="#8D9986"/>
<path d="M200.442 12.9291C201.251 11.6122 201.655 10.09 201.604 8.54903C201.647 7.00176 201.255 5.47311 200.471 4.13425C199.712 2.90514 198.605 1.92461 197.287 1.3151C195.799 0.632303 194.173 0.296789 192.534 0.334388H181.997V24.5085H188.625V16.5272H190.917L195.202 24.5085H202.4L197.449 15.4834C198.669 14.9268 199.706 14.0417 200.442 12.9291ZM194.244 10.214C193.931 10.6506 193.484 10.9757 192.97 11.1411C192.327 11.348 191.653 11.446 190.977 11.4312H188.641V5.57221H190.977C191.656 5.55704 192.331 5.66389 192.97 5.88755C193.487 6.07033 193.932 6.40892 194.244 6.85565C194.561 7.36282 194.716 7.953 194.689 8.54903C194.717 9.13519 194.561 9.71549 194.244 10.2109V10.214Z" fill="#8D9986"/>
<path d="M204.415 24.5083H221.959V19.22H211.04V15.0638H221.1V9.77553H211.04V5.61933H222.007V0.331055H204.415V24.5083Z" fill="#8D9986"/>
<path d="M231.758 21.0993C231.436 20.3448 230.829 19.7442 230.068 19.4248C229.678 19.2646 229.26 19.1821 228.837 19.1821C228.415 19.1821 227.997 19.2646 227.607 19.4248C227.23 19.5842 226.888 19.8133 226.598 20.0996C226.308 20.3863 226.076 20.7258 225.916 21.0993C225.755 21.4856 225.671 21.8998 225.671 22.3181C225.671 22.7363 225.755 23.1505 225.916 23.5369C226.238 24.2997 226.85 24.9066 227.62 25.2271C228.01 25.3873 228.428 25.4698 228.85 25.4698C229.272 25.4698 229.69 25.3873 230.08 25.2271C230.457 25.0686 230.8 24.8394 231.09 24.5523C231.376 24.2592 231.603 23.9145 231.758 23.5369C231.92 23.1505 232.003 22.7363 232.003 22.3181C232.003 21.8998 231.92 21.4856 231.758 21.0993ZM230.918 23.5179C230.706 23.8728 230.407 24.169 230.049 24.3788C229.68 24.5894 229.263 24.7003 228.837 24.7003C228.412 24.7003 227.994 24.5894 227.626 24.3788C227.267 24.1691 226.967 23.873 226.754 23.5179C226.543 23.1525 226.432 22.7389 226.432 22.3181C226.432 21.8972 226.543 21.4836 226.754 21.1182C226.965 20.7639 227.263 20.4679 227.62 20.2573C227.988 20.0467 228.406 19.9358 228.831 19.9358C229.256 19.9358 229.674 20.0467 230.042 20.2573C230.403 20.4694 230.703 20.7689 230.914 21.1277C231.127 21.4925 231.239 21.9063 231.239 22.3275C231.239 22.7488 231.127 23.1626 230.914 23.5274L230.918 23.5179Z" fill="#8D9986"/>
<path d="M229.947 22.3008C230.051 22.1404 230.105 21.9524 230.099 21.7615C230.107 21.5767 230.055 21.3942 229.95 21.2412C229.86 21.1079 229.737 20.9994 229.593 20.9259C229.473 20.8651 229.34 20.8317 229.205 20.8281H227.725V23.7198H228.361V22.7486H228.998L229.53 23.7293H230.233L229.635 22.6035C229.759 22.5251 229.865 22.422 229.947 22.3008ZM229.243 22.1494C229.167 22.2249 229.067 22.2708 228.96 22.2787H228.368V21.3074H228.976C229.072 21.3141 229.164 21.3468 229.243 21.402C229.298 21.4435 229.341 21.4985 229.368 21.5616C229.395 21.6247 229.404 21.6936 229.396 21.7615C229.402 21.8334 229.391 21.9056 229.364 21.9728C229.338 22.0399 229.296 22.1003 229.243 22.1494Z" fill="#8D9986"/>
<path d="M80.3132 9.07861H69.2314V14.0011H80.3132V9.07861Z" fill="#8D9986"/>
</g>
<defs>
<clipPath id="clip0_1251_1785">
<rect width="232" height="60" fill="white"/>
</clipPath>
</defs>
</svg>
