<svg width="67" height="97" viewBox="0 0 67 97" fill="none" xmlns="http://www.w3.org/2000/svg">
<g clip-path="url(#clip0_1251_1887)">
<path d="M40.3466 38.0615C40.0966 37.8515 39.8066 37.7115 39.4666 37.6515C39.1266 37.5915 38.7566 37.6215 38.3466 37.7615C37.9466 37.8915 37.5466 38.1415 37.1466 38.5115H37.1366C36.8866 38.7515 36.6266 38.9215 36.3466 39.0115C36.0666 39.1115 35.8466 39.0915 35.6866 38.9515C35.5966 38.8715 35.5466 38.7615 35.5466 38.6115C35.5466 38.4615 35.5866 38.2915 35.6866 38.0915C35.7866 37.8915 35.9266 37.6815 36.1366 37.4715L36.1566 37.4415C36.3066 37.2615 36.5066 37.1115 36.7466 36.9715C36.8966 36.8815 37.0366 36.8215 37.1666 36.7615C37.3066 36.7015 37.3866 36.5515 37.3466 36.4115L37.1966 35.8015C37.1566 35.6315 36.9666 35.5315 36.7966 35.5915C36.6166 35.6615 36.4366 35.7415 36.2366 35.8515C35.9266 36.0215 35.6466 36.2215 35.4066 36.4615L35.1666 36.2515C35.0366 36.1415 34.8466 36.1615 34.7466 36.2815L34.3466 36.7515C34.2366 36.8815 34.2566 37.0715 34.3766 37.1715L34.6566 37.4115C34.4666 37.7415 34.3566 38.0615 34.3366 38.3815C34.3066 38.6915 34.3366 38.9815 34.4466 39.2315C34.5466 39.4915 34.6966 39.7015 34.8966 39.8715C35.0766 40.0315 35.2966 40.1415 35.5366 40.2115C35.7766 40.2815 36.0366 40.2915 36.3066 40.2615C36.5866 40.2315 36.8766 40.1315 37.1566 39.9915C37.4466 39.8415 37.7166 39.6515 37.9766 39.4015C38.3066 39.1015 38.6166 38.9315 38.8966 38.8715C39.1766 38.8115 39.3966 38.8515 39.5566 38.9915C39.6566 39.0715 39.7166 39.1815 39.7466 39.3215C39.7766 39.4615 39.7666 39.6115 39.7166 39.7815C39.6666 39.9515 39.5666 40.1215 39.4166 40.2915L39.3866 40.3215C38.9666 40.8115 38.5466 41.1015 38.1266 41.1815C38.0366 41.2015 37.9466 41.2115 37.8566 41.2115C37.7066 41.2115 37.5766 41.3315 37.5666 41.4815L37.4966 42.1015C37.4766 42.2815 37.6166 42.4315 37.7966 42.4315C37.9766 42.4315 38.1666 42.4215 38.3566 42.3915C38.8166 42.3115 39.2766 42.0815 39.7166 41.7215L40.0666 42.0215C40.1966 42.1315 40.3866 42.1115 40.4866 41.9915L40.8866 41.5215C40.9966 41.3915 40.9766 41.2015 40.8566 41.1015L40.5466 40.8415C40.7766 40.5015 40.9166 40.1515 40.9666 39.8015C41.0166 39.4515 40.9866 39.1215 40.8666 38.8215C40.7566 38.5215 40.5866 38.2715 40.3566 38.0715L40.3466 38.0615Z" fill="url(#paint0_linear_1251_1887)"/>
<path d="M55.6765 30.3915L43.3765 19.9015C43.0365 19.6115 42.5165 19.6515 42.2265 19.9915L41.7965 20.4915L37.4265 18.5215L32.0565 16.1215C31.8565 16.0315 31.6365 16.0215 31.4365 16.1015C31.2365 16.1815 31.0665 16.3315 30.9865 16.5315L28.5765 21.8915L19.3065 42.5215H18.9965C15.0365 42.5215 11.8165 45.7415 11.8165 49.7015V72.4315C11.8165 77.0115 15.5365 80.7315 20.1165 80.7315H51.9565C52.4065 80.7315 52.7765 80.3615 52.7765 79.9115V70.5015H53.4865C54.6865 70.5015 55.6665 69.5215 55.6665 68.3215V61.3415C55.6665 60.1415 54.6865 59.1615 53.4865 59.1615H52.7765V49.8815C52.7765 49.4315 52.4065 49.0615 51.9565 49.0615H48.9665V43.3215C48.9665 42.8715 48.5965 42.5015 48.1465 42.5015H46.3965L55.7565 31.5315C56.0465 31.1915 56.0065 30.6715 55.6665 30.3815L55.6765 30.3915ZM48.2265 31.3315C48.3565 32.9515 49.0465 34.4315 50.1965 35.5615L38.6765 49.0715H26.5765C27.2765 46.8115 26.7265 44.3415 25.1065 42.5815L29.4065 37.5415C29.4465 37.4915 29.4865 37.4315 29.5165 37.3715L34.9165 31.0515C34.9965 30.9915 35.0665 30.9115 35.1165 30.8115L39.1565 26.0915C40.2465 26.8215 41.5265 27.2115 42.8465 27.2115C43.0265 27.2115 43.2065 27.2115 43.3865 27.1915C44.8965 27.0715 46.2865 26.4615 47.3865 25.4515L49.3265 27.1115C48.5065 28.3515 48.1165 29.8215 48.2365 31.3315H48.2265ZM23.7265 49.0715L21.3265 47.0215L24.0365 43.8415C25.2665 45.2915 25.5865 47.3015 24.8465 49.0715H23.7365H23.7265ZM26.9465 33.8715C27.5365 32.5615 28.6065 31.5515 29.9465 31.0415C30.9265 30.6715 31.9765 30.5915 32.9765 30.8015L30.7465 33.4115L30.5765 33.1115C30.4865 32.9615 30.2865 32.9115 30.1365 33.0215C29.9865 33.1315 29.8265 33.2715 29.6765 33.4215C29.4265 33.6715 29.2165 33.9515 29.0465 34.2415L28.7565 34.1115C28.6065 34.0415 28.4265 34.1115 28.3565 34.2615L28.1065 34.8215C28.0365 34.9715 28.1065 35.1515 28.2565 35.2215L28.5865 35.3715C28.5365 35.6015 28.5065 35.8215 28.5165 36.0315L27.6165 37.0815C27.5665 37.1315 27.5365 37.1915 27.5065 37.2515L26.8465 38.0315C26.3265 36.7015 26.3565 35.2115 26.9565 33.8715H26.9465ZM46.1165 24.3815C44.4665 25.7815 42.0765 25.9715 40.2165 24.8415L42.9365 21.6615L46.1165 24.3715V24.3815ZM34.1465 29.4415C32.5965 28.9015 30.9265 28.9315 29.3665 29.5215C27.6165 30.1915 26.2265 31.5015 25.4565 33.2115C24.5565 35.2215 24.6465 37.4915 25.6765 39.4015L23.3665 42.1115L19.5565 46.5815C19.2665 46.9215 19.3065 47.4415 19.6465 47.7315L21.2165 49.0715H20.1365L18.4865 48.3315L29.7465 23.2615C30.3965 23.4615 31.0565 23.5615 31.7165 23.5615C34.0165 23.5615 36.2165 22.3715 37.4465 20.3315L40.6865 21.7915L34.1365 29.4515L34.1465 29.4415ZM32.1365 17.9415L35.9465 19.6515C34.7565 21.4615 32.5165 22.3115 30.4165 21.7515L32.1265 17.9415H32.1365ZM18.5665 44.1715L16.6565 48.4115C16.5565 48.6315 16.5665 48.8715 16.6565 49.0715H13.4865C13.7765 46.4415 15.9165 44.3715 18.5665 44.1615V44.1715ZM54.0365 61.3515V68.3315C54.0365 68.6315 53.7965 68.8715 53.4965 68.8715H44.2365C42.0165 68.8715 40.2065 67.0615 40.2065 64.8415C40.2065 62.6215 42.0165 60.8115 44.2365 60.8115H53.4965C53.7965 60.8115 54.0365 61.0515 54.0365 61.3515ZM51.1565 59.1715H44.2365C41.1165 59.1715 38.5665 61.7115 38.5665 64.8415C38.5665 67.9715 41.1065 70.5115 44.2365 70.5115H51.1565V79.1015H20.1165C16.4365 79.1015 13.4465 76.1115 13.4465 72.4315V50.7115H19.9465H38.9165C38.9165 50.7115 38.9965 50.7115 39.0265 50.7115C39.0565 50.7115 39.0865 50.7115 39.1165 50.7115H51.1265V59.1715H51.1565ZM47.3565 44.1515V49.0715H40.8265L45.0265 44.1515H47.3565ZM51.2665 34.3215C49.6665 32.6615 49.3965 30.1315 50.5765 28.1815L54.0065 31.1015L51.2665 34.3115V34.3215Z" fill="url(#paint1_linear_1251_1887)"/>
<path d="M42.1565 33.6715C39.2065 31.1615 34.7665 31.5115 32.2565 34.4615C31.0365 35.8915 30.4465 37.7015 30.5965 39.5715C30.7465 41.4415 31.6165 43.1415 33.0365 44.3615C34.3565 45.4915 35.9765 46.0415 37.5865 46.0415C39.5765 46.0415 41.5465 45.2015 42.9365 43.5815C44.1565 42.1515 44.7465 40.3415 44.5965 38.4715C44.4465 36.6015 43.5765 34.9015 42.1565 33.6815V33.6715ZM41.6965 42.5115C39.7665 44.7715 36.3565 45.0415 34.0965 43.1115C32.9965 42.1815 32.3365 40.8715 32.2165 39.4415C32.0965 38.0115 32.5565 36.6115 33.4865 35.5215C34.5465 34.2715 36.0665 33.6315 37.5865 33.6315C38.8265 33.6315 40.0665 34.0515 41.0765 34.9215C42.1765 35.8515 42.8365 37.1615 42.9565 38.5915C43.0665 40.0315 42.6165 41.4215 41.6865 42.5115H41.6965Z" fill="url(#paint2_linear_1251_1887)"/>
<path d="M44.6266 62.0515C43.0166 62.0515 41.7166 63.3615 41.7166 64.9615C41.7166 66.5615 43.0266 67.8715 44.6266 67.8715C46.2266 67.8715 47.5366 66.5615 47.5366 64.9615C47.5366 63.3615 46.2266 62.0515 44.6266 62.0515ZM44.6266 66.2515C43.9166 66.2515 43.3466 65.6815 43.3466 64.9715C43.3466 64.2615 43.9166 63.6915 44.6266 63.6915C45.3366 63.6915 45.9066 64.2715 45.9066 64.9715C45.9066 65.6715 45.3366 66.2515 44.6266 66.2515Z" fill="url(#paint3_linear_1251_1887)"/>
</g>
<defs>
<linearGradient id="paint0_linear_1251_1887" x1="40.9897" y1="35.574" x2="33.9802" y2="35.9674" gradientUnits="userSpaceOnUse">
<stop stop-color="#778171"/>
<stop offset="1" stop-color="#8EA680"/>
</linearGradient>
<linearGradient id="paint1_linear_1251_1887" x1="55.9503" y1="16.0473" x2="9.80924" y2="17.8517" gradientUnits="userSpaceOnUse">
<stop stop-color="#778171"/>
<stop offset="1" stop-color="#8EA680"/>
</linearGradient>
<linearGradient id="paint2_linear_1251_1887" x1="44.6194" y1="31.9967" x2="29.9605" y2="32.837" gradientUnits="userSpaceOnUse">
<stop stop-color="#778171"/>
<stop offset="1" stop-color="#8EA680"/>
</linearGradient>
<linearGradient id="paint3_linear_1251_1887" x1="47.5366" y1="62.0515" x2="41.4625" y2="62.3997" gradientUnits="userSpaceOnUse">
<stop stop-color="#778171"/>
<stop offset="1" stop-color="#8EA680"/>
</linearGradient>
<clipPath id="clip0_1251_1887">
<rect width="44.15" height="64.68" fill="white" transform="translate(11.8165 16.0515)"/>
</clipPath>
</defs>
</svg>
