<svg width="89" height="90" viewBox="0 0 89 90" fill="none" xmlns="http://www.w3.org/2000/svg">
<path d="M62.1284 33.3729C61.7284 33.5829 61.5684 34.0729 61.7784 34.4729C63.6384 38.0929 64.5884 42.003 64.5884 46.093C64.5884 60.153 53.1484 71.593 39.0884 71.593C25.0284 71.593 13.5884 60.153 13.5884 46.093C13.5884 32.033 25.0284 20.5929 39.0884 20.5929C45.8084 20.5929 52.1484 23.1929 56.9484 27.9129C57.2684 28.2329 57.7884 28.2229 58.0984 27.9029C58.4184 27.5829 58.4084 27.0629 58.0884 26.7529C52.9784 21.7329 46.2284 18.9629 39.0784 18.9629C24.1184 18.9629 11.9384 31.1329 11.9384 46.1029C11.9384 61.0729 24.1084 73.2429 39.0784 73.2429C54.0484 73.2429 66.2184 61.0729 66.2184 46.1029C66.2184 41.7529 65.2084 37.583 63.2284 33.733C63.0184 33.333 62.5284 33.1729 62.1284 33.3829V33.3729Z" fill="url(#paint0_linear_1251_1861)"/>
<path d="M53.1583 31.603C53.4583 31.263 53.4283 30.753 53.0983 30.453C49.2383 26.983 44.2583 25.073 39.0683 25.073C27.4783 25.073 18.0483 34.503 18.0483 46.093C18.0483 57.683 27.4783 67.1129 39.0683 67.1129C50.6583 67.1129 60.0883 57.683 60.0883 46.093C60.0883 43.103 59.4683 40.2129 58.2483 37.5029C58.0683 37.0929 57.5783 36.913 57.1683 37.093C56.7583 37.273 56.5783 37.7629 56.7583 38.1729C57.8783 40.6729 58.4483 43.333 58.4483 46.093C58.4483 56.783 49.7483 65.4729 39.0683 65.4729C28.3883 65.4729 19.6883 56.773 19.6883 46.093C19.6883 35.413 28.3883 26.7129 39.0683 26.7129C43.8483 26.7129 48.4383 28.473 51.9983 31.673C52.3383 31.973 52.8483 31.9429 53.1483 31.6129L53.1583 31.603Z" fill="url(#paint1_linear_1251_1861)"/>
<path d="M48.0884 35.2529C48.3584 34.8929 48.2784 34.3829 47.9184 34.1129C45.3384 32.2029 42.2884 31.203 39.0784 31.203C30.8684 31.203 24.1884 37.883 24.1884 46.093C24.1884 54.303 30.8684 60.9829 39.0784 60.9829C47.2884 60.9829 53.9684 54.303 53.9684 46.093C53.9684 44.433 53.6984 42.8029 53.1584 41.2429C53.0084 40.8129 52.5484 40.5929 52.1184 40.7329C51.6884 40.8829 51.4684 41.343 51.6084 41.773C52.0884 43.163 52.3284 44.613 52.3284 46.083C52.3284 53.393 46.3784 59.343 39.0684 59.343C31.7584 59.343 25.8084 53.393 25.8084 46.083C25.8084 38.773 31.7584 32.823 39.0684 32.823C41.9184 32.823 44.6484 33.7229 46.9384 35.4129C47.2984 35.6829 47.8084 35.6029 48.0784 35.2429L48.0884 35.2529Z" fill="url(#paint2_linear_1251_1861)"/>
<path d="M39.0783 38.953C40.0783 38.953 41.0483 39.1529 41.9583 39.5529C42.3683 39.7329 42.8483 39.5529 43.0383 39.1329C43.2183 38.7229 43.0383 38.2429 42.6183 38.0529C41.4983 37.5629 40.3083 37.3129 39.0783 37.3129C34.2383 37.3129 30.3083 41.253 30.3083 46.083C30.3083 50.913 34.2483 54.8529 39.0783 54.8529C43.9083 54.8529 47.8483 50.913 47.8483 46.083C47.8483 45.923 47.8484 45.753 47.8384 45.593C47.8183 45.143 47.4284 44.803 46.9783 44.823C46.5283 44.843 46.1883 45.2329 46.2083 45.6829C46.2083 45.8129 46.2183 45.943 46.2183 46.083C46.2183 50.023 43.0183 53.2229 39.0783 53.2229C35.1383 53.2229 31.9383 50.023 31.9383 46.083C31.9383 42.143 35.1383 38.9429 39.0783 38.9429V38.953Z" fill="url(#paint3_linear_1251_1861)"/>
<path d="M74.3283 23.663L70.5483 22.9029L71.2883 19.323C71.3783 18.883 71.0983 18.4529 70.6583 18.3629C70.2183 18.2729 69.7883 18.5529 69.6983 18.9929L68.8283 23.2129L38.5983 45.4329C38.2383 45.7029 38.1583 46.213 38.4283 46.573C38.5883 46.793 38.8383 46.903 39.0883 46.903C39.2583 46.903 39.4283 46.8529 39.5683 46.7429L69.9183 24.4329L74.0183 25.263C74.0683 25.273 74.1283 25.2829 74.1783 25.2829C74.5583 25.2829 74.8983 25.0129 74.9783 24.6229C75.0683 24.1829 74.7783 23.753 74.3383 23.663H74.3283Z" fill="url(#paint4_linear_1251_1861)"/>
<path d="M77.1883 21.423L73.4083 20.663L74.1483 17.0829C74.2383 16.6429 73.9583 16.2129 73.5183 16.1229C73.0783 16.0329 72.6483 16.3129 72.5583 16.7529L71.6483 21.133C71.6083 21.343 71.6483 21.5629 71.7683 21.7529C71.8883 21.9329 72.0783 22.063 72.2883 22.103L76.8683 23.0229C76.9183 23.0329 76.9783 23.043 77.0283 23.043C77.4083 23.043 77.7483 22.773 77.8283 22.383C77.9183 21.943 77.6283 21.513 77.1883 21.423Z" fill="url(#paint5_linear_1251_1861)"/>
<defs>
<linearGradient id="paint0_linear_1251_1861" x1="66.2184" y1="18.9629" x2="9.56891" y2="22.2098" gradientUnits="userSpaceOnUse">
<stop stop-color="#778171"/>
<stop offset="1" stop-color="#8EA680"/>
</linearGradient>
<linearGradient id="paint1_linear_1251_1861" x1="60.0883" y1="25.0729" x2="16.2132" y2="27.5877" gradientUnits="userSpaceOnUse">
<stop stop-color="#778171"/>
<stop offset="1" stop-color="#8EA680"/>
</linearGradient>
<linearGradient id="paint2_linear_1251_1861" x1="53.9684" y1="31.2029" x2="22.8884" y2="32.9843" gradientUnits="userSpaceOnUse">
<stop stop-color="#778171"/>
<stop offset="1" stop-color="#8EA680"/>
</linearGradient>
<linearGradient id="paint3_linear_1251_1861" x1="47.8483" y1="37.3129" x2="29.5427" y2="38.3621" gradientUnits="userSpaceOnUse">
<stop stop-color="#778171"/>
<stop offset="1" stop-color="#8EA680"/>
</linearGradient>
<linearGradient id="paint4_linear_1251_1861" x1="74.9947" y1="18.3461" x2="36.7465" y2="21.1655" gradientUnits="userSpaceOnUse">
<stop stop-color="#778171"/>
<stop offset="1" stop-color="#8EA680"/>
</linearGradient>
<linearGradient id="paint5_linear_1251_1861" x1="77.8447" y1="16.1061" x2="71.3579" y2="16.439" gradientUnits="userSpaceOnUse">
<stop stop-color="#778171"/>
<stop offset="1" stop-color="#8EA680"/>
</linearGradient>
</defs>
</svg>
