<svg width="87" height="86" viewBox="0 0 87 86" fill="none" xmlns="http://www.w3.org/2000/svg">
<g clip-path="url(#clip0_1251_1855)">
<path d="M38.3696 33.9695C39.0096 34.4895 39.8296 34.8495 40.8196 35.0295V35.8395C40.8196 36.1295 41.0596 36.3695 41.3496 36.3695H42.4296C42.7196 36.3695 42.9596 36.1295 42.9596 35.8395V35.1295C43.6796 35.0495 44.2996 34.8395 44.8296 34.4995C45.3596 34.1595 45.7596 33.7395 46.0396 33.2495C46.3196 32.7495 46.4496 32.2395 46.4496 31.7095C46.4496 31.1395 46.2996 30.5895 45.9896 30.0595C45.6796 29.5295 45.2096 29.0695 44.5696 28.6795C43.9296 28.2895 43.1396 28.0395 42.1996 27.9195H42.1696C41.5796 27.8495 41.0596 27.6895 40.6096 27.4295C40.1596 27.1695 39.9396 26.8495 39.9396 26.4795C39.9396 26.2695 40.0396 26.0695 40.2296 25.8995C40.4196 25.7295 40.7096 25.5895 41.0796 25.4895C41.4496 25.3895 41.8996 25.3495 42.4296 25.3695H42.4896C42.8996 25.3695 43.3296 25.4495 43.7996 25.6195C44.0796 25.7195 44.3296 25.8295 44.5596 25.9495C44.7896 26.0695 45.0796 26.0095 45.2396 25.7895L45.8796 24.8895C46.0596 24.6295 45.9796 24.2795 45.7096 24.1195C45.4196 23.9595 45.0896 23.7995 44.7296 23.6695C44.1396 23.4495 43.5496 23.3095 42.9596 23.2495V22.6895C42.9596 22.3995 42.7196 22.1595 42.4296 22.1595H41.3496C41.0596 22.1595 40.8196 22.3995 40.8196 22.6895V23.3395C40.1596 23.4695 39.5996 23.6895 39.1496 24.0095C38.6996 24.3295 38.3596 24.6995 38.1296 25.1295C37.8996 25.5595 37.7896 25.9995 37.7896 26.4695C37.7896 26.8995 37.8796 27.3095 38.0696 27.7095C38.2596 28.1095 38.5296 28.4695 38.8796 28.7895C39.2496 29.1295 39.6996 29.4095 40.2196 29.6195C40.7396 29.8295 41.3196 29.9695 41.9396 30.0395C42.7196 30.1495 43.2996 30.3595 43.6996 30.6695C44.0996 30.9795 44.2996 31.3195 44.2996 31.6895C44.2996 31.9095 44.2196 32.1195 44.0696 32.3195C43.9196 32.5195 43.6996 32.6795 43.4096 32.8095C43.1196 32.9395 42.7796 32.9995 42.3796 32.9995H42.3096C41.1696 32.9995 40.3096 32.7595 39.7196 32.2895C39.5896 32.1895 39.4796 32.0795 39.3696 31.9595C39.1896 31.7595 38.8996 31.7195 38.6796 31.8695L37.7796 32.4895C37.5196 32.6695 37.4696 33.0295 37.6696 33.2695C37.8796 33.5095 38.1096 33.7495 38.3696 33.9695Z" fill="url(#paint0_linear_1251_1855)"/>
<path d="M75.0895 54.6695C75.0295 54.3895 74.8395 54.1595 74.5795 54.0695C70.6195 52.5895 67.9495 48.5895 67.1195 47.1995C70.5495 43.2095 70.3895 38.4395 70.3795 38.2395C70.3795 38.0095 70.2695 37.7995 70.0895 37.6495C69.9195 37.4995 69.6895 37.4395 69.4595 37.4595C67.0695 37.7595 65.1595 38.8195 63.7495 39.9295C63.6695 39.8195 63.5595 39.7295 63.4195 39.6695C63.3695 39.6495 58.9895 37.8095 53.0695 36.2295C54.3695 34.1695 55.0895 31.7495 55.0895 29.2395C55.0895 22.0195 49.2195 16.1495 41.9995 16.1495C34.7795 16.1495 28.9095 22.0195 28.9095 29.2395C28.9095 31.1595 29.3395 33.0295 30.1295 34.7295C27.4595 35.4195 25.1995 36.5395 23.4095 38.0695C20.2695 40.7495 18.3895 43.7795 17.7995 47.0895C17.0795 47.4595 15.4195 48.1095 14.4395 47.6295C13.9695 47.3995 13.6795 46.8995 13.5595 46.0895C13.4895 45.6395 13.0795 45.3395 12.6295 45.3995C12.1795 45.4695 11.8795 45.8795 11.9395 46.3295C12.1895 48.0195 13.0495 48.7695 13.7195 49.0895C14.2095 49.3295 14.7495 49.4195 15.2795 49.4195C16.1295 49.4195 16.9595 49.1895 17.6095 48.9395C17.4295 54.6595 20.9795 59.2495 21.8495 60.2995L22.4695 68.4195C22.4995 68.8495 22.8595 69.1695 23.2795 69.1695H27.7995C28.1695 69.1695 28.4995 68.9195 28.5895 68.5595L30.2995 61.8995C32.6595 62.6695 39.4495 64.3695 47.3995 61.8995L48.7295 68.5295C48.8095 68.9095 49.1395 69.1895 49.5295 69.1895H53.6195C53.9695 69.1895 54.2795 68.9695 54.3895 68.6395L56.8895 61.4795C58.7395 62.5295 60.9095 63.0695 63.3695 63.0695C64.3295 63.0695 65.3395 62.9895 66.3895 62.8195C70.8895 62.1095 74.5195 60.1195 74.6695 60.0395C74.8095 59.9595 74.9295 59.8395 75.0095 59.6895C75.7395 58.2195 75.1995 55.2295 75.0795 54.6495L75.0895 54.6695ZM42.0195 17.7795C48.3395 17.7795 53.4695 22.9195 53.4695 29.2295C53.4695 32.8895 51.7195 36.3195 48.7695 38.4795C43.0095 36.9795 38.0895 37.5495 34.9995 38.2795C32.2195 36.1195 30.5695 32.7695 30.5695 29.2395C30.5695 22.9195 35.7095 17.7895 42.0195 17.7895V17.7795ZM73.6495 58.7595C72.7695 59.2095 69.6895 60.6695 66.1195 61.2295C62.3695 61.8195 59.2895 61.2595 56.9295 59.5795C56.9195 59.5795 56.9095 59.5695 56.8995 59.5595C55.8295 58.7895 54.8995 57.7795 54.1295 56.5395C53.8895 56.1595 53.3895 56.0395 53.0095 56.2795C52.6295 56.5195 52.5095 57.0195 52.7495 57.3995C53.5295 58.6495 54.4595 59.6995 55.5295 60.5395L53.0795 67.5495H50.2395L48.8695 60.6795C48.8195 60.4495 48.6795 60.2495 48.4695 60.1295C48.2695 60.0095 48.0195 59.9895 47.7995 60.0695C38.3295 63.3595 30.1695 60.1195 30.0895 60.0895C29.8695 59.9995 29.6295 60.0095 29.4095 60.1195C29.1995 60.2295 29.0395 60.4195 28.9895 60.6495L27.2095 67.5695H24.0795L23.4895 59.9295C23.4795 59.7495 23.3995 59.5795 23.2795 59.4495C23.2395 59.3995 18.8995 54.5195 19.2895 48.6095C19.5095 45.1995 21.2695 42.0695 24.4995 39.3195C26.1895 37.8795 28.3695 36.8295 30.9695 36.2095C31.5695 37.1595 32.2895 38.0295 33.1195 38.8095C32.2095 39.0995 31.6795 39.3395 31.5895 39.3795C31.1795 39.5695 30.9995 40.0495 31.1895 40.4595C31.3795 40.8695 31.8595 41.0495 32.2695 40.8595C32.3495 40.8195 40.7195 37.1095 51.0095 40.8795C51.0995 40.9095 51.1995 40.9295 51.2895 40.9295C51.6195 40.9295 51.9395 40.7295 52.0595 40.3895C52.2195 39.9695 51.9995 39.4995 51.5695 39.3395C51.2695 39.2295 50.9795 39.1295 50.6895 39.0295C51.1795 38.5895 51.6395 38.1195 52.0595 37.6195C57.2995 38.9795 61.4095 40.5895 62.5095 41.0295C61.5095 42.0495 60.9695 42.8995 60.9195 42.9795C60.6795 43.3595 60.7995 43.8695 61.1795 44.0995C61.5595 44.3395 62.0695 44.2195 62.2995 43.8395C62.3195 43.7995 64.5895 40.2095 68.7095 39.2295C68.5695 40.7695 67.9795 43.9095 65.5295 46.5095C65.2895 46.7595 65.2395 47.1395 65.3995 47.4495C65.5295 47.6895 68.4495 53.2395 73.5795 55.4095C73.7595 56.5195 73.8695 58.0095 73.6495 58.7595Z" fill="url(#paint1_linear_1251_1855)"/>
</g>
<defs>
<linearGradient id="paint0_linear_1251_1855" x1="46.4496" y1="22.1595" x2="37.1397" y2="22.4938" gradientUnits="userSpaceOnUse">
<stop stop-color="#778171"/>
<stop offset="1" stop-color="#8EA680"/>
</linearGradient>
<linearGradient id="paint1_linear_1251_1855" x1="75.3844" y1="16.1495" x2="9.2554" y2="20.6838" gradientUnits="userSpaceOnUse">
<stop stop-color="#778171"/>
<stop offset="1" stop-color="#8EA680"/>
</linearGradient>
<clipPath id="clip0_1251_1855">
<rect width="63.45" height="53.05" fill="white" transform="translate(11.9495 16.1495)"/>
</clipPath>
</defs>
</svg>
