<svg width="101" height="80" viewBox="0 0 101 80" fill="none" xmlns="http://www.w3.org/2000/svg">
<g clip-path="url(#clip0_1251_1879)">
<path d="M27.9394 35.4665H22.9894C22.5394 35.4665 22.1694 35.8365 22.1694 36.2865V48.7665C22.1694 49.2165 22.5394 49.5865 22.9894 49.5865H27.9394C28.3894 49.5865 28.7594 49.2165 28.7594 48.7665V36.2865C28.7594 35.8365 28.3894 35.4665 27.9394 35.4665ZM27.1194 47.9465H23.7994V37.0965H27.1194V47.9465Z" fill="url(#paint0_linear_1251_1879)"/>
<path d="M35.9795 26.5265H31.0295C30.5795 26.5265 30.2095 26.8965 30.2095 27.3465V48.7665C30.2095 49.2165 30.5795 49.5865 31.0295 49.5865H35.9795C36.4295 49.5865 36.7995 49.2165 36.7995 48.7665V27.3465C36.7995 26.8965 36.4295 26.5265 35.9795 26.5265ZM35.1595 47.9465H31.8395V28.1565H35.1595V47.9465Z" fill="url(#paint1_linear_1251_1879)"/>
<path d="M44.0095 30.0665H39.0595C38.6095 30.0665 38.2395 30.4365 38.2395 30.8865V48.7665C38.2395 49.2165 38.6095 49.5865 39.0595 49.5865H44.0095C44.4595 49.5865 44.8295 49.2165 44.8295 48.7665V30.8865C44.8295 30.4365 44.4595 30.0665 44.0095 30.0665ZM43.1895 47.9465H39.8695V31.6965H43.1895V47.9465Z" fill="url(#paint2_linear_1251_1879)"/>
<path d="M89.5394 57.1765L80.6994 48.3365C80.3594 47.9965 79.8794 47.8665 79.4394 47.9365L76.4694 44.9665C79.5894 41.5165 80.6494 36.8665 79.6594 32.5865L83.3294 29.1665V30.8865C83.3294 31.3365 83.6994 31.7065 84.1494 31.7065C84.5994 31.7065 84.9694 31.3365 84.9694 30.8865V27.3865C84.9694 26.9765 84.6594 26.6265 84.2494 26.5765L80.9494 26.1865C80.4994 26.1365 80.0994 26.4565 80.0394 26.9065C79.9794 27.3565 80.3094 27.7565 80.7594 27.8165L82.2094 27.9865L79.1394 30.8465C78.4694 29.0665 77.4194 27.3965 75.9894 25.9565C75.6394 25.6065 75.2794 25.2865 74.8994 24.9765V17.1465C74.8994 16.6965 74.5294 16.3265 74.0794 16.3265H17.8594C17.4094 16.3265 17.0394 16.6965 17.0394 17.1465V53.5665L11.5294 62.2065C11.3694 62.4565 11.3594 62.7765 11.4994 63.0365C11.6394 63.2965 11.9194 63.4565 12.2194 63.4565H80.8494C81.1594 63.4565 81.4394 63.2765 81.5794 63.0065C81.7194 62.7265 81.6794 62.3965 81.4994 62.1465L74.8994 53.5265V46.4565C75.0394 46.3465 75.1694 46.2265 75.3094 46.1065L78.2894 49.0865C78.2094 49.5265 78.3394 50.0065 78.6894 50.3465L87.5294 59.1865C87.8094 59.4665 88.1694 59.6065 88.5394 59.6065C88.9094 59.6065 89.2694 59.4665 89.5494 59.1865C90.1094 58.6265 90.1094 57.7265 89.5494 57.1665L89.5394 57.1765ZM74.8294 44.3265C72.5294 46.6265 69.4794 47.8865 66.2294 47.8865C62.9794 47.8865 59.9194 46.6165 57.6294 44.3265C56.0294 42.7265 54.9694 40.7965 54.4494 38.7465L60.3594 33.8165L71.1294 39.7565C71.4394 39.9265 71.8194 39.8765 72.0794 39.6365L78.2494 33.8965C78.7994 37.5865 77.6594 41.4865 74.8294 44.3165V44.3265ZM77.8294 32.0665L71.3994 38.0465L60.6594 32.1165C60.3694 31.9565 59.9994 31.9865 59.7394 32.2065L54.1194 36.8865C53.7894 33.3965 54.9494 29.7865 57.6194 27.1165C59.9894 24.7465 63.1094 23.5565 66.2194 23.5565C69.3294 23.5565 72.4494 24.7465 74.8194 27.1165C76.2494 28.5465 77.2494 30.2565 77.8194 32.0665H77.8294ZM13.7094 61.8265L18.3094 54.6265H73.6794L79.1994 61.8265H13.7094ZM73.2594 52.9865H18.6694V17.9565H73.2494V23.8565C67.9594 20.7165 60.9994 21.4265 56.4494 25.9665C53.1494 29.2665 51.8794 33.8365 52.6294 38.1265L46.9094 42.8965C46.5594 43.1865 46.5194 43.6965 46.8094 44.0465C46.9694 44.2365 47.1994 44.3365 47.4394 44.3365C47.6194 44.3365 47.8094 44.2765 47.9594 44.1465L53.0694 39.8965C53.7094 41.9465 54.8394 43.8665 56.4594 45.4865C59.0694 48.0965 62.5294 49.5265 66.2194 49.5265C68.7394 49.5265 71.1494 48.8565 73.2594 47.5965V52.9865Z" fill="url(#paint3_linear_1251_1879)"/>
</g>
<defs>
<linearGradient id="paint0_linear_1251_1879" x1="28.7594" y1="35.4665" x2="21.8641" y2="35.6509" gradientUnits="userSpaceOnUse">
<stop stop-color="#778171"/>
<stop offset="1" stop-color="#8EA680"/>
</linearGradient>
<linearGradient id="paint1_linear_1251_1879" x1="36.7995" y1="26.5265" x2="29.9011" y2="26.6395" gradientUnits="userSpaceOnUse">
<stop stop-color="#778171"/>
<stop offset="1" stop-color="#8EA680"/>
</linearGradient>
<linearGradient id="paint2_linear_1251_1879" x1="44.8295" y1="30.0665" x2="37.9318" y2="30.2" gradientUnits="userSpaceOnUse">
<stop stop-color="#778171"/>
<stop offset="1" stop-color="#8EA680"/>
</linearGradient>
<linearGradient id="paint3_linear_1251_1879" x1="89.9694" y1="16.3265" x2="8.44658" y2="24.1158" gradientUnits="userSpaceOnUse">
<stop stop-color="#778171"/>
<stop offset="1" stop-color="#8EA680"/>
</linearGradient>
<clipPath id="clip0_1251_1879">
<rect width="78.55" height="47.13" fill="white" transform="translate(11.3994 16.3265)"/>
</clipPath>
</defs>
</svg>
