<svg width="78" height="85" viewBox="0 0 78 85" fill="none" xmlns="http://www.w3.org/2000/svg">
<g clip-path="url(#clip0_1251_1871)">
<path d="M53.5484 39.6445C54.8884 38.7445 55.8784 37.4345 56.3684 35.8745C56.9484 34.0545 56.7784 32.1145 55.8984 30.4245C54.2084 27.1745 50.3484 25.7645 46.9984 27.0445L42.1184 17.6645C41.5884 16.6345 40.4984 16.0745 39.3584 16.2245C38.2084 16.3745 37.3084 17.1945 37.0584 18.3245C33.9384 32.3145 25.9284 38.0945 25.3784 38.4745L14.3084 44.2345C13.2584 44.7845 12.4784 45.7045 12.1184 46.8445C11.7584 47.9745 11.8684 49.1845 12.4184 50.2345L14.8084 54.8345C15.5984 56.3545 17.1584 57.2345 18.7584 57.2345C19.4484 57.2345 20.1484 57.0745 20.8084 56.7345L21.6884 56.2745L31.2584 66.7145C32.1484 67.6845 33.3984 68.2045 34.6584 68.2045C35.3484 68.2045 36.0484 68.0445 36.6984 67.7245L38.6184 66.7645C40.1084 66.0245 40.9984 64.5245 40.9384 62.8545C40.8784 61.1845 39.8784 59.7645 38.3384 59.1345L34.7184 57.6545C33.8184 57.2845 33.0784 56.6145 32.6284 55.7545L30.5084 51.6845L31.9184 50.9545C32.0684 50.8745 32.1784 50.7645 32.2584 50.6245C34.4084 49.9645 43.0884 47.8845 54.9784 52.8045C55.3184 52.9445 55.6784 53.0145 56.0284 53.0145C56.7684 53.0145 57.4884 52.7045 58.0184 52.1245C58.7984 51.2745 58.9584 50.0545 58.4284 49.0345L53.5484 39.6545V39.6445ZM54.4384 31.1745C55.1184 32.4845 55.2484 33.9745 54.8084 35.3845C54.4484 36.5245 53.7384 37.5045 52.7884 38.1845L50.2684 33.3445L47.7484 28.5045C50.2884 27.6345 53.1584 28.7245 54.4384 31.1745ZM20.0484 55.2745C18.6684 55.9945 16.9684 55.4545 16.2484 54.0745L13.8584 49.4745C13.5084 48.8045 13.4484 48.0445 13.6684 47.3245C13.8884 46.6045 14.3884 46.0245 15.0584 45.6745L25.4484 40.2745L30.4384 49.8745L20.0484 55.2745ZM31.1784 56.4945C31.8084 57.6945 32.8384 58.6445 34.0984 59.1545L37.7184 60.6345C38.6784 61.0245 39.2684 61.8745 39.3084 62.9045C39.3484 63.9345 38.8184 64.8245 37.8884 65.2845L35.9684 66.2445C34.7884 66.8345 33.3484 66.5645 32.4584 65.5945L23.1884 55.4745L29.0684 52.4145L31.1884 56.4845L31.1784 56.4945ZM56.8184 51.0045C56.6984 51.1345 56.2584 51.5445 55.6084 51.2745C43.2984 46.1845 34.3584 48.2445 31.8484 49.0245L26.8484 39.4145C28.9284 37.8045 35.7484 31.6745 38.6484 18.6745C38.7984 17.9845 39.3884 17.8545 39.5684 17.8345C39.7484 17.8145 40.3484 17.7845 40.6684 18.4145L45.8984 28.4745L48.8184 34.0945L51.7384 39.7145L56.9684 49.7745C57.2984 50.4045 56.9284 50.8745 56.8084 51.0045H56.8184Z" fill="url(#paint0_linear_1251_1871)"/>
<path d="M57.8785 29.8245C57.9985 29.8245 58.1285 29.7945 58.2385 29.7345L64.3585 26.6745C64.7585 26.4745 64.9285 25.9845 64.7185 25.5845C64.5185 25.1845 64.0285 25.0145 63.6185 25.2245L57.4985 28.2845C57.0985 28.4845 56.9285 28.9745 57.1385 29.3745C57.2785 29.6645 57.5685 29.8245 57.8685 29.8245H57.8785Z" fill="url(#paint1_linear_1251_1871)"/>
<path d="M51.9885 24.9045C52.0485 24.9145 52.1084 24.9245 52.1684 24.9245C52.5384 24.9245 52.8784 24.6645 52.9584 24.2945L54.5885 17.1545C54.6885 16.7145 54.4184 16.2745 53.9784 16.1745C53.5384 16.0745 53.0985 16.3445 52.9985 16.7845L51.3684 23.9245C51.2684 24.3645 51.5384 24.8045 51.9784 24.9045H51.9885Z" fill="url(#paint2_linear_1251_1871)"/>
<path d="M65.7084 37.8545L58.6384 35.9245C58.2084 35.8045 57.7584 36.0645 57.6384 36.4945C57.5184 36.9245 57.7784 37.3745 58.2084 37.4945L65.2784 39.4245C65.3484 39.4445 65.4184 39.4545 65.4984 39.4545C65.8584 39.4545 66.1884 39.2145 66.2884 38.8545C66.4084 38.4245 66.1484 37.9745 65.7184 37.8545H65.7084Z" fill="url(#paint3_linear_1251_1871)"/>
</g>
<defs>
<linearGradient id="paint0_linear_1251_1871" x1="58.7378" y1="16.2005" x2="9.83548" y2="18.7244" gradientUnits="userSpaceOnUse">
<stop stop-color="#778171"/>
<stop offset="1" stop-color="#8EA680"/>
</linearGradient>
<linearGradient id="paint1_linear_1251_1871" x1="64.809" y1="25.134" x2="56.755" y2="25.8978" gradientUnits="userSpaceOnUse">
<stop stop-color="#778171"/>
<stop offset="1" stop-color="#8EA680"/>
</linearGradient>
<linearGradient id="paint2_linear_1251_1871" x1="54.6092" y1="16.1537" x2="51.1956" y2="16.2265" gradientUnits="userSpaceOnUse">
<stop stop-color="#778171"/>
<stop offset="1" stop-color="#8EA680"/>
</linearGradient>
<linearGradient id="paint3_linear_1251_1871" x1="66.3177" y1="35.8952" x2="57.375" y2="37.1493" gradientUnits="userSpaceOnUse">
<stop stop-color="#778171"/>
<stop offset="1" stop-color="#8EA680"/>
</linearGradient>
<clipPath id="clip0_1251_1871">
<rect width="54.4" height="52.04" fill="white" transform="translate(11.9084 16.1545)"/>
</clipPath>
</defs>
</svg>
