<svg width="91" height="84" viewBox="0 0 91 84" fill="none" xmlns="http://www.w3.org/2000/svg">
<g clip-path="url(#clip0_1251_1906)">
<path d="M45.3254 30.0991C47.6921 30.0991 49.6256 28.1997 49.6256 25.857C49.6256 23.5144 47.7001 21.615 45.3254 21.615C42.9507 21.615 41.0253 23.5144 41.0253 25.857C41.0253 28.1997 42.9507 30.0991 45.3254 30.0991ZM45.3254 22.9129C46.9701 22.9129 48.3098 24.2346 48.3098 25.857C48.3098 27.4795 46.9701 28.8012 45.3254 28.8012C43.6808 28.8012 42.341 27.4795 42.341 25.857C42.341 24.2346 43.6808 22.9129 45.3254 22.9129Z" fill="url(#paint0_linear_1251_1906)"/>
<path d="M17.5751 55.6466C17.5751 57.554 19.1475 59.1052 21.081 59.1052C23.0144 59.1052 24.5869 57.554 24.5869 55.6466C24.5869 53.7393 23.0144 52.188 21.081 52.188C19.1475 52.188 17.5751 53.7393 17.5751 55.6466ZM23.2712 55.6466C23.2712 56.8417 22.2844 57.8072 21.081 57.8072C19.8776 57.8072 18.8908 56.8338 18.8908 55.6466C18.8908 54.4595 19.8776 53.486 21.081 53.486C22.2844 53.486 23.2712 54.4595 23.2712 55.6466Z" fill="url(#paint1_linear_1251_1906)"/>
<path d="M41.8035 55.6466C41.8035 57.554 43.3759 59.1052 45.3094 59.1052C47.2428 59.1052 48.8153 57.554 48.8153 55.6466C48.8153 53.7393 47.2428 52.188 45.3094 52.188C43.3759 52.188 41.8035 53.7393 41.8035 55.6466ZM47.4995 55.6466C47.4995 56.8417 46.5128 57.8072 45.3094 57.8072C44.106 57.8072 43.1192 56.8338 43.1192 55.6466C43.1192 54.4595 44.106 53.486 45.3094 53.486C46.5128 53.486 47.4995 54.4595 47.4995 55.6466Z" fill="url(#paint2_linear_1251_1906)"/>
<path d="M69.5298 52.196C67.5964 52.196 66.0239 53.7472 66.0239 55.6545C66.0239 57.5619 67.5964 59.1131 69.5298 59.1131C71.4633 59.1131 73.0357 57.5619 73.0357 55.6545C73.0357 53.7472 71.4633 52.196 69.5298 52.196ZM69.5298 57.8152C68.3184 57.8152 67.3396 56.8417 67.3396 55.6545C67.3396 54.4674 68.3264 53.4939 69.5298 53.4939C70.7332 53.4939 71.72 54.4674 71.72 55.6545C71.72 56.8417 70.7332 57.8152 69.5298 57.8152Z" fill="url(#paint3_linear_1251_1906)"/>
<path d="M69.6261 48.1043L48.1093 40.372C53.5647 39.1215 57.6402 34.2937 57.6402 28.54C57.6402 21.8366 52.1126 16.3915 45.3254 16.3915C38.5383 16.3915 33.0107 21.8445 33.0107 28.54C33.0107 34.2779 37.0621 39.0898 42.4854 40.364L20.9286 48.1122C15.6176 48.2072 11.3254 52.4888 11.3254 57.7518C11.3254 63.0149 15.7138 67.3994 21.1051 67.3994C26.4963 67.3994 30.8847 63.0703 30.8847 57.7518C30.8847 53.3436 27.8681 49.6159 23.7606 48.4683L44.6275 40.9734V48.1359C39.5652 48.4921 35.5539 52.6708 35.5539 57.7518C35.5539 62.8328 39.9422 67.3994 45.3335 67.3994C50.7247 67.3994 55.1131 63.0703 55.1131 57.7518C55.1131 52.4334 51.0536 48.4367 45.9432 48.128V40.9734L66.8502 48.4842C62.7747 49.6476 59.7742 53.3594 59.7742 57.7518C59.7742 63.0703 64.1626 67.3994 69.5539 67.3994C74.9451 67.3994 79.3335 63.0703 79.3335 57.7518C79.3335 52.4334 74.9852 48.1518 69.6341 48.1122L69.6261 48.1043ZM41.0093 35.473C40.6482 35.473 40.3514 35.7658 40.3514 36.122V38.2272C39.6855 37.8948 39.0678 37.4991 38.4901 37.0479V35.845C38.4901 33.7556 40.215 32.0461 42.341 32.0461H48.3259C50.4439 32.0461 52.1768 33.7477 52.1768 35.845V37.0479C51.5992 37.4991 50.9734 37.8948 50.3155 38.2272V36.122C50.3155 35.7658 50.0187 35.473 49.6577 35.473C49.2966 35.473 48.9998 35.7658 48.9998 36.122V38.7812C47.8526 39.1848 46.6171 39.3985 45.3335 39.3985C44.0498 39.3985 42.8144 39.1769 41.6671 38.7812V36.122C41.6671 35.7658 41.3703 35.473 41.0093 35.473ZM34.3184 28.54C34.3184 22.5489 39.2603 17.6815 45.3254 17.6815C51.3906 17.6815 56.3325 22.5568 56.3325 28.54C56.3325 31.3417 55.2495 33.9059 53.4684 35.837C53.4684 33.0354 51.1499 30.756 48.3099 30.756H42.325C39.4849 30.756 37.1744 33.0354 37.1664 35.837C35.3934 33.9059 34.3023 31.3496 34.3023 28.54H34.3184ZM18.3613 65.6504V63.6797C18.3613 63.3235 18.0645 63.0307 17.7034 63.0307C17.3424 63.0307 17.0456 63.3235 17.0456 63.6797V65.0805C16.6284 64.8589 16.2433 64.5977 15.8743 64.3128V63.4581C15.8743 61.899 17.1579 60.6327 18.7384 60.6327H23.4156C24.996 60.6327 26.2797 61.899 26.2797 63.4581V64.3445C25.9106 64.6294 25.5175 64.8827 25.1084 65.1043V63.6797C25.1084 63.3235 24.8115 63.0307 24.4505 63.0307C24.0895 63.0307 23.7926 63.3235 23.7926 63.6797V65.6662C22.9422 65.9511 22.0357 66.1015 21.089 66.1015C20.1423 66.1015 19.2037 65.9432 18.3453 65.6504H18.3613ZM29.569 57.7518C29.569 59.7937 28.8228 61.6694 27.5793 63.1178C27.4028 61.0046 25.6058 59.3426 23.4156 59.3426H18.7384C16.5642 59.3426 14.7752 60.9888 14.5826 63.0782C13.3632 61.6299 12.6331 59.7779 12.6331 57.7518C12.6331 53.1457 16.4278 49.4022 21.097 49.4022C25.7662 49.4022 29.5609 53.1457 29.5609 57.7518H29.569ZM42.5817 65.6504V63.6797C42.5817 63.3235 42.2849 63.0307 41.9238 63.0307C41.5628 63.0307 41.266 63.3235 41.266 63.6797V65.0805C40.8488 64.8589 40.4637 64.5977 40.0947 64.3128V63.4581C40.0947 61.899 41.3783 60.6327 42.9588 60.6327H47.636C49.2164 60.6327 50.5001 61.899 50.5001 63.4581V64.3445C50.131 64.6294 49.7379 64.8827 49.3287 65.1043V63.6797C49.3287 63.3235 49.0319 63.0307 48.6709 63.0307C48.3099 63.0307 48.013 63.3235 48.013 63.6797V65.6662C47.1626 65.9511 46.2561 66.1015 45.3094 66.1015C44.3627 66.1015 43.4241 65.9432 42.5656 65.6504H42.5817ZM53.7893 57.7518C53.7893 59.7937 53.0432 61.6694 51.7997 63.1178C51.6232 61.0046 49.8261 59.3426 47.636 59.3426H42.9588C40.7846 59.3426 38.9956 60.9888 38.803 63.0782C37.5836 61.6299 36.8535 59.7779 36.8535 57.7518C36.8535 53.1457 40.6482 49.4022 45.3174 49.4022C49.9866 49.4022 53.7813 53.1457 53.7813 57.7518H53.7893ZM66.8021 65.6504V63.6797C66.8021 63.3235 66.5052 63.0307 66.1442 63.0307C65.7832 63.0307 65.4864 63.3235 65.4864 63.6797V65.0805C65.0692 64.8589 64.6841 64.5977 64.3151 64.3128V63.4581C64.3151 61.899 65.5987 60.6327 67.1791 60.6327H71.8563C73.4368 60.6327 74.7204 61.899 74.7204 63.4581V64.3445C74.3514 64.6294 73.9583 64.8827 73.5491 65.1043V63.6797C73.5491 63.3235 73.2523 63.0307 72.8913 63.0307C72.5303 63.0307 72.2334 63.3235 72.2334 63.6797V65.6662C71.383 65.9511 70.4765 66.1015 69.5298 66.1015C68.5831 66.1015 67.6445 65.9432 66.786 65.6504H66.8021ZM76.0201 63.1178C75.8436 61.0046 74.0465 59.3426 71.8563 59.3426H67.1791C65.005 59.3426 63.216 60.9888 63.0234 63.0782C61.804 61.6299 61.0739 59.7779 61.0739 57.7518C61.0739 53.1457 64.8686 49.4022 69.5378 49.4022C74.207 49.4022 78.0017 53.1457 78.0017 57.7518C78.0017 59.7937 77.2556 61.6694 76.0121 63.1178H76.0201Z" fill="url(#paint4_linear_1251_1906)"/>
</g>
<defs>
<linearGradient id="paint0_linear_1251_1906" x1="49.6256" y1="21.615" x2="40.6507" y2="22.1364" gradientUnits="userSpaceOnUse">
<stop stop-color="#778171"/>
<stop offset="1" stop-color="#8EA680"/>
</linearGradient>
<linearGradient id="paint1_linear_1251_1906" x1="24.5869" y1="52.188" x2="17.2697" y2="52.6132" gradientUnits="userSpaceOnUse">
<stop stop-color="#778171"/>
<stop offset="1" stop-color="#8EA680"/>
</linearGradient>
<linearGradient id="paint2_linear_1251_1906" x1="48.8153" y1="52.188" x2="41.498" y2="52.6132" gradientUnits="userSpaceOnUse">
<stop stop-color="#778171"/>
<stop offset="1" stop-color="#8EA680"/>
</linearGradient>
<linearGradient id="paint3_linear_1251_1906" x1="73.0357" y1="52.196" x2="65.7185" y2="52.6211" gradientUnits="userSpaceOnUse">
<stop stop-color="#778171"/>
<stop offset="1" stop-color="#8EA680"/>
</linearGradient>
<linearGradient id="paint4_linear_1251_1906" x1="79.3335" y1="16.3915" x2="8.537" y2="21.8016" gradientUnits="userSpaceOnUse">
<stop stop-color="#778171"/>
<stop offset="1" stop-color="#8EA680"/>
</linearGradient>
<clipPath id="clip0_1251_1906">
<rect width="68" height="51" fill="white" transform="translate(11.3254 16.3915)"/>
</clipPath>
</defs>
</svg>
