<svg width="78" height="87" viewBox="0 0 78 87" fill="none" xmlns="http://www.w3.org/2000/svg">
<g clip-path="url(#clip0_1251_1895)">
<path d="M39.3295 28.191C42.6382 28.191 45.3312 25.4951 45.3312 22.1827C45.3312 18.8704 42.6382 16.1745 39.3295 16.1745C36.0208 16.1745 33.3279 18.8704 33.3279 22.1827C33.3279 25.4951 36.0208 28.191 39.3295 28.191ZM39.3295 17.5143C41.8993 17.5143 43.9929 19.6101 43.9929 22.1827C43.9929 24.7554 41.8993 26.8512 39.3295 26.8512C36.7597 26.8512 34.6661 24.7554 34.6661 22.1827C34.6661 19.6101 36.7597 17.5143 39.3295 17.5143Z" fill="url(#paint0_linear_1251_1895)"/>
<path d="M39.3952 51.591C39.0258 51.591 38.722 51.8869 38.722 52.2649L38.7056 69.5088C38.7056 69.8786 39.0011 70.1828 39.3788 70.1828C39.7483 70.1828 40.052 69.8869 40.052 69.5088L40.0685 52.2649C40.0685 51.8951 39.7729 51.591 39.3952 51.591Z" fill="url(#paint1_linear_1251_1895)"/>
<path d="M56.0702 31.5937C59.1408 31.5937 61.6367 29.0951 61.6367 26.0211C61.6367 22.9471 59.1408 20.4485 56.0702 20.4485C52.9996 20.4485 50.5037 22.9471 50.5037 26.0211C50.5037 29.0951 52.9996 31.5937 56.0702 31.5937ZM56.0702 21.7882C58.4019 21.7882 60.2984 23.6869 60.2984 26.0211C60.2984 28.3554 58.4019 30.254 56.0702 30.254C53.7385 30.254 51.8419 28.3554 51.8419 26.0211C51.8419 23.6869 53.7385 21.7882 56.0702 21.7882Z" fill="url(#paint2_linear_1251_1895)"/>
<path d="M60.0931 32.9088H52.0471C51.3164 32.9088 50.6021 33.0238 49.9207 33.254C48.6481 31.1499 46.341 29.7444 43.7056 29.7444H34.9535C32.3181 29.7444 30.011 31.1581 28.7384 33.2622C28.0488 33.0321 27.3345 32.9088 26.5956 32.9088H18.5496C14.8386 32.9088 11.8254 35.9252 11.8254 39.6403V52.1663C11.8254 53.7115 13.0816 54.9773 14.6333 54.9773C15.167 54.9773 15.6678 54.8211 16.0947 54.5581V69.5006C16.0947 69.8704 16.3985 70.1745 16.768 70.1745C17.1374 70.1745 17.4412 69.8704 17.4412 69.5006V40.0266C17.4412 39.6567 17.1374 39.3526 16.768 39.3526C16.3985 39.3526 16.0947 39.6567 16.0947 40.0266V52.1745C16.0947 52.98 15.4379 53.6375 14.6333 53.6375C13.8287 53.6375 13.1719 52.98 13.1719 52.1745V39.6485C13.1719 36.6732 15.5857 34.2567 18.5578 34.2567H26.6038C27.1374 34.2567 27.6547 34.3307 28.1555 34.4869C27.8599 35.2759 27.7039 36.1307 27.7039 37.0184V50.654C27.7039 50.7691 27.7039 50.8759 27.7203 50.9827V69.5088C27.7203 69.8786 28.0241 70.1827 28.3936 70.1827C28.763 70.1827 29.0668 69.8786 29.0668 69.5088V53.1608C29.5348 53.4649 30.1013 53.6458 30.7006 53.6458C31.3 53.6458 31.8829 53.4649 32.3509 53.1444V69.5088C32.3509 69.8786 32.6547 70.1827 33.0241 70.1827C33.3936 70.1827 33.6974 69.8786 33.6974 69.5088V37.4293C33.6974 37.0595 33.3936 36.7554 33.0241 36.7554C32.6547 36.7554 32.3509 37.0595 32.3509 37.4293V50.6458C32.3509 51.5581 31.612 52.2978 30.7006 52.2978C29.8714 52.2978 29.1818 51.6814 29.0668 50.8841V40.0266C29.0668 39.9773 29.0668 39.9197 29.0504 39.8704V37.0101C29.0504 33.7389 31.7023 31.0841 34.9699 31.0841H43.722C46.9896 31.0841 49.6415 33.7389 49.6415 37.0101V39.8293C49.6251 39.8951 49.6087 39.9608 49.6087 40.0266V50.9745C49.4527 51.7307 48.7877 52.2978 47.9913 52.2978C47.08 52.2978 46.341 51.5581 46.341 50.6458V37.4293C46.341 37.0595 46.0373 36.7554 45.6678 36.7554C45.2983 36.7554 44.9946 37.0595 44.9946 37.4293V69.5006C44.9946 69.8704 45.2983 70.1745 45.6678 70.1745C46.0373 70.1745 46.341 69.8704 46.341 69.5006V53.1362C46.8172 53.4485 47.3837 53.6375 47.9913 53.6375C48.5988 53.6375 49.1407 53.4567 49.6087 53.1608V69.5006C49.6087 69.8704 49.9125 70.1745 50.2819 70.1745C50.6514 70.1745 50.9552 69.8704 50.9552 69.5006V51.0649C50.9716 50.9252 50.988 50.7855 50.988 50.6458V37.0101C50.988 36.1225 50.8238 35.2677 50.5282 34.4786C51.029 34.3307 51.5381 34.2567 52.0635 34.2567H60.1095C63.0816 34.2567 65.4954 36.6732 65.4954 39.6485V52.1745C65.4954 52.98 64.8386 53.6375 64.034 53.6375C63.2294 53.6375 62.5726 52.98 62.5726 52.1745V40.0266C62.5726 39.6567 62.2688 39.3526 61.8993 39.3526C61.5299 39.3526 61.2261 39.6567 61.2261 40.0266V69.5006C61.2261 69.8704 61.5299 70.1745 61.8993 70.1745C62.2688 70.1745 62.5726 69.8704 62.5726 69.5006V54.5581C62.9995 54.8211 63.5003 54.9773 64.034 54.9773C65.5775 54.9773 66.8419 53.7197 66.8419 52.1663V39.6403C66.8419 35.9252 63.8287 32.9088 60.1177 32.9088H60.0931Z" fill="url(#paint3_linear_1251_1895)"/>
<path d="M56.1358 52.9882C55.7664 52.9882 55.4626 53.2841 55.4626 53.6622L55.4462 69.5088C55.4462 69.8786 55.7417 70.1828 56.1194 70.1828C56.4889 70.1828 56.7926 69.8869 56.7926 69.5088L56.8091 53.6622C56.8091 53.2923 56.5135 52.9882 56.1358 52.9882Z" fill="url(#paint4_linear_1251_1895)"/>
<path d="M22.5726 31.5937C25.6432 31.5937 28.1391 29.0951 28.1391 26.0211C28.1391 22.9471 25.6432 20.4485 22.5726 20.4485C19.502 20.4485 17.0061 22.9471 17.0061 26.0211C17.0061 29.0951 19.502 31.5937 22.5726 31.5937ZM22.5726 21.7882C24.9043 21.7882 26.8008 23.6869 26.8008 26.0211C26.8008 28.3554 24.9043 30.254 22.5726 30.254C20.2409 30.254 18.3444 28.3554 18.3444 26.0211C18.3444 23.6869 20.2409 21.7882 22.5726 21.7882Z" fill="url(#paint5_linear_1251_1895)"/>
<path d="M22.6383 52.9882C22.2688 52.9882 21.965 53.2841 21.965 53.6622L21.9486 69.5088C21.9486 69.8786 22.2442 70.1828 22.6218 70.1828C22.9913 70.1828 23.2951 69.8869 23.2951 69.5088L23.3115 53.6622C23.3115 53.2923 23.0159 52.9882 22.6383 52.9882Z" fill="url(#paint6_linear_1251_1895)"/>
</g>
<defs>
<linearGradient id="paint0_linear_1251_1895" x1="45.3312" y1="16.1745" x2="32.8038" y2="16.8918" gradientUnits="userSpaceOnUse">
<stop stop-color="#778171"/>
<stop offset="1" stop-color="#8EA680"/>
</linearGradient>
<linearGradient id="paint1_linear_1251_1895" x1="40.0685" y1="51.591" x2="38.6414" y2="51.597" gradientUnits="userSpaceOnUse">
<stop stop-color="#778171"/>
<stop offset="1" stop-color="#8EA680"/>
</linearGradient>
<linearGradient id="paint2_linear_1251_1895" x1="61.6367" y1="20.4485" x2="50.0176" y2="21.1137" gradientUnits="userSpaceOnUse">
<stop stop-color="#778171"/>
<stop offset="1" stop-color="#8EA680"/>
</linearGradient>
<linearGradient id="paint3_linear_1251_1895" x1="66.8419" y1="29.7444" x2="9.58339" y2="34.2093" gradientUnits="userSpaceOnUse">
<stop stop-color="#778171"/>
<stop offset="1" stop-color="#8EA680"/>
</linearGradient>
<linearGradient id="paint4_linear_1251_1895" x1="56.8091" y1="52.9882" x2="55.382" y2="52.9947" gradientUnits="userSpaceOnUse">
<stop stop-color="#778171"/>
<stop offset="1" stop-color="#8EA680"/>
</linearGradient>
<linearGradient id="paint5_linear_1251_1895" x1="28.1391" y1="20.4485" x2="16.52" y2="21.1137" gradientUnits="userSpaceOnUse">
<stop stop-color="#778171"/>
<stop offset="1" stop-color="#8EA680"/>
</linearGradient>
<linearGradient id="paint6_linear_1251_1895" x1="23.3115" y1="52.9882" x2="21.8845" y2="52.9947" gradientUnits="userSpaceOnUse">
<stop stop-color="#778171"/>
<stop offset="1" stop-color="#8EA680"/>
</linearGradient>
<clipPath id="clip0_1251_1895">
<rect width="55" height="54" fill="white" transform="translate(11.8254 16.1745)"/>
</clipPath>
</defs>
</svg>
