<svg width="90" height="81" viewBox="0 0 90 81" fill="none" xmlns="http://www.w3.org/2000/svg">
<g clip-path="url(#clip0_1251_1915)">
<path d="M45.0735 33.4615C48.9435 33.4615 52.0835 30.3215 52.0835 26.4515V23.8715C52.0835 20.0015 48.9435 16.8615 45.0735 16.8615C41.2035 16.8615 38.0635 20.0015 38.0635 23.8715V26.4515C38.0635 30.3215 41.2035 33.4615 45.0735 33.4615ZM39.6935 23.8715C39.6935 20.9015 42.1035 18.4915 45.0735 18.4915C48.0435 18.4915 50.4535 20.9015 50.4535 23.8715V26.4515C50.4535 29.4215 48.0435 31.8315 45.0735 31.8315C42.1035 31.8315 39.6935 29.4215 39.6935 26.4515V23.8715Z" fill="url(#paint0_linear_1251_1915)"/>
<path d="M49.7334 34.6715H40.4234C34.9634 34.6715 30.5234 39.1115 30.5234 44.5715V51.7115C30.5234 52.1615 30.8934 52.5315 31.3434 52.5315C31.7934 52.5315 32.1634 52.1615 32.1634 51.7115V44.5715C32.1634 40.0115 35.8734 36.3015 40.4334 36.3015H49.7434C54.3034 36.3015 58.0134 40.0115 58.0134 44.5715V51.7115C58.0134 52.1615 58.3834 52.5315 58.8334 52.5315C59.2834 52.5315 59.6534 52.1615 59.6534 51.7115V44.5715C59.6534 39.1115 55.2134 34.6715 49.7534 34.6715H49.7334Z" fill="url(#paint1_linear_1251_1915)"/>
<path d="M36.7735 45.1715C36.3235 45.1715 35.9535 45.5415 35.9535 45.9915V53.7915C35.9535 54.2415 36.3235 54.6115 36.7735 54.6115C37.2235 54.6115 37.5935 54.2415 37.5935 53.7915V45.9915C37.5935 45.5415 37.2235 45.1715 36.7735 45.1715Z" fill="url(#paint2_linear_1251_1915)"/>
<path d="M53.3835 45.1715C52.9335 45.1715 52.5635 45.5415 52.5635 45.9915V53.7915C52.5635 54.2415 52.9335 54.6115 53.3835 54.6115C53.8335 54.6115 54.2035 54.2415 54.2035 53.7915V45.9915C54.2035 45.5415 53.8335 45.1715 53.3835 45.1715Z" fill="url(#paint3_linear_1251_1915)"/>
<path d="M28.3335 54.0215L21.9635 57.7015L19.3235 53.1215C19.1735 52.8715 18.9035 52.7115 18.6135 52.7115C18.3235 52.7115 18.0535 52.8715 17.9035 53.1215L11.7935 63.6915C11.6435 63.9415 11.6435 64.2515 11.7935 64.5115C11.9435 64.7715 12.2135 64.9215 12.5035 64.9215H24.7135C25.0035 64.9215 25.2735 64.7615 25.4235 64.5115C25.5735 64.2615 25.5735 63.9515 25.4235 63.6915L22.7835 59.1115L29.1535 55.4315C29.5435 55.2015 29.6735 54.7115 29.4535 54.3215C29.2235 53.9315 28.7335 53.8015 28.3435 54.0215H28.3335ZM13.9135 63.2915L18.6035 55.1615L23.2935 63.2915H13.9135Z" fill="url(#paint4_linear_1251_1915)"/>
<path d="M61.4834 36.6415C61.6234 36.6415 61.7634 36.6015 61.8934 36.5315L68.2634 32.8515L70.9034 37.4315C71.0534 37.6815 71.3234 37.8415 71.6134 37.8415C71.9034 37.8415 72.1734 37.6815 72.3234 37.4315L78.4334 26.8515C78.5834 26.6015 78.5834 26.2915 78.4334 26.0315C78.2834 25.7815 78.0134 25.6215 77.7234 25.6215H65.5134C65.2234 25.6215 64.9534 25.7815 64.8034 26.0315C64.6534 26.2815 64.6534 26.5915 64.8034 26.8515L67.4434 31.4315L61.0734 35.1115C60.6834 35.3415 60.5534 35.8315 60.7734 36.2215C60.9234 36.4815 61.2034 36.6315 61.4834 36.6315V36.6415ZM76.3034 27.2715L71.6134 35.4015L66.9234 27.2715H76.3034Z" fill="url(#paint5_linear_1251_1915)"/>
<path d="M72.3235 53.1215C72.1735 52.8715 71.9035 52.7115 71.6135 52.7115C71.3235 52.7115 71.0535 52.8715 70.9035 53.1215L68.2635 57.7015L61.8935 54.0215C61.5035 53.7915 61.0035 53.9315 60.7835 54.3215C60.5535 54.7115 60.6935 55.2115 61.0835 55.4315L67.4535 59.1115L64.8135 63.6915C64.6635 63.9415 64.6635 64.2515 64.8135 64.5115C64.9635 64.7615 65.2335 64.9215 65.5235 64.9215H77.7335C78.0235 64.9215 78.2935 64.7615 78.4435 64.5115C78.5935 64.2615 78.5935 63.9515 78.4435 63.6915L72.3335 53.1115L72.3235 53.1215ZM66.9235 63.2915L71.6135 55.1615L76.3035 63.2915H66.9235Z" fill="url(#paint6_linear_1251_1915)"/>
<path d="M29.1435 35.1115L22.7735 31.4315L25.4135 26.8515C25.5635 26.6015 25.5635 26.2915 25.4135 26.0315C25.2635 25.7815 24.9935 25.6215 24.7035 25.6215H12.5035C12.2135 25.6215 11.9435 25.7815 11.7935 26.0315C11.6435 26.2815 11.6435 26.5915 11.7935 26.8515L17.9035 37.4315C18.0535 37.6815 18.3235 37.8415 18.6135 37.8415C18.9035 37.8415 19.1735 37.6815 19.3235 37.4315L21.9635 32.8515L28.3335 36.5315C28.4635 36.6015 28.6035 36.6415 28.7435 36.6415C29.0235 36.6415 29.3035 36.4915 29.4535 36.2315C29.6835 35.8415 29.5435 35.3415 29.1535 35.1215L29.1435 35.1115ZM18.6035 35.3915L13.9135 27.2615H23.2935L18.6035 35.3915Z" fill="url(#paint7_linear_1251_1915)"/>
</g>
<defs>
<linearGradient id="paint0_linear_1251_1915" x1="52.0835" y1="16.8615" x2="37.4377" y2="17.5705" gradientUnits="userSpaceOnUse">
<stop stop-color="#778171"/>
<stop offset="1" stop-color="#8EA680"/>
</linearGradient>
<linearGradient id="paint1_linear_1251_1915" x1="59.6534" y1="34.6715" x2="29.4162" y2="37.4982" gradientUnits="userSpaceOnUse">
<stop stop-color="#778171"/>
<stop offset="1" stop-color="#8EA680"/>
</linearGradient>
<linearGradient id="paint2_linear_1251_1915" x1="37.5935" y1="45.1715" x2="35.8764" y2="45.1886" gradientUnits="userSpaceOnUse">
<stop stop-color="#778171"/>
<stop offset="1" stop-color="#8EA680"/>
</linearGradient>
<linearGradient id="paint3_linear_1251_1915" x1="54.2035" y1="45.1715" x2="52.4864" y2="45.1886" gradientUnits="userSpaceOnUse">
<stop stop-color="#778171"/>
<stop offset="1" stop-color="#8EA680"/>
</linearGradient>
<linearGradient id="paint4_linear_1251_1915" x1="29.5602" y1="52.7115" x2="10.9702" y2="54.2717" gradientUnits="userSpaceOnUse">
<stop stop-color="#778171"/>
<stop offset="1" stop-color="#8EA680"/>
</linearGradient>
<linearGradient id="paint5_linear_1251_1915" x1="78.5459" y1="25.6215" x2="59.9557" y2="27.1805" gradientUnits="userSpaceOnUse">
<stop stop-color="#778171"/>
<stop offset="1" stop-color="#8EA680"/>
</linearGradient>
<linearGradient id="paint6_linear_1251_1915" x1="78.556" y1="52.7115" x2="59.9614" y2="54.2725" gradientUnits="userSpaceOnUse">
<stop stop-color="#778171"/>
<stop offset="1" stop-color="#8EA680"/>
</linearGradient>
<linearGradient id="paint7_linear_1251_1915" x1="29.5647" y1="25.6215" x2="10.9699" y2="27.1812" gradientUnits="userSpaceOnUse">
<stop stop-color="#778171"/>
<stop offset="1" stop-color="#8EA680"/>
</linearGradient>
<clipPath id="clip0_1251_1915">
<rect width="66.85" height="48.06" fill="white" transform="translate(11.6835 16.8615)"/>
</clipPath>
</defs>
</svg>
