<svg width="46" height="56" viewBox="0 0 46 56" fill="none" xmlns="http://www.w3.org/2000/svg">
<path d="M42.9591 37.9477V43.9693C42.9613 44.5283 42.8468 45.0816 42.6229 45.5938C42.3989 46.106 42.0705 46.5658 41.6586 46.9437C41.2466 47.3216 40.7603 47.6093 40.2308 47.7884C39.7012 47.9675 39.1401 48.034 38.5834 47.9837C32.4069 47.3126 26.4739 45.202 21.2612 41.8216C16.4114 38.7399 12.2997 34.6281 9.21796 29.7784C5.82574 24.542 3.71469 18.5802 3.05584 12.3759C3.00568 11.8208 3.07165 11.2614 3.24954 10.7333C3.42743 10.2051 3.71334 9.71974 4.08908 9.30813C4.46482 8.89652 4.92215 8.56765 5.43195 8.34247C5.94175 8.11728 6.49286 8.00072 7.05018 8.00019H13.0718C14.0459 7.99061 14.9903 8.33556 15.7289 8.97074C16.4674 9.60593 16.9499 10.488 17.0862 11.4526C17.3404 13.3796 17.8117 15.2717 18.4912 17.0928C18.7613 17.8113 18.8197 18.592 18.6597 19.3427C18.4996 20.0933 18.1277 20.7823 17.588 21.328L15.0389 23.8772C17.8962 28.9023 22.057 33.063 27.0821 35.9204L29.6312 33.3713C30.177 32.8316 30.866 32.4597 31.6166 32.2996C32.3672 32.1395 33.148 32.198 33.8664 32.468C35.6875 33.1476 37.5796 33.6189 39.5067 33.8731C40.4817 34.0106 41.3722 34.5017 42.0087 35.253C42.6453 36.0043 42.9835 36.9633 42.9591 37.9477Z" stroke="url(#paint0_linear_1501_2177)" stroke-width="2" stroke-linecap="round" stroke-linejoin="round"/>
<defs>
<linearGradient id="paint0_linear_1501_2177" x1="42.9603" y1="7.99999" x2="1.29638" y2="10.3833" gradientUnits="userSpaceOnUse">
<stop stop-color="#778171"/>
<stop offset="1" stop-color="#8EA680"/>
</linearGradient>
</defs>
</svg>
