<svg xmlns="http://www.w3.org/2000/svg" width="28" height="29" viewBox="0 0 28 29" fill="none"><path d="M25.6442 13.1887C24.5743 13.1887 23.6727 13.9098 23.385 14.8968L16.4906 14.2259C16.4638 13.3182 16.0843 12.5004 15.4848 11.9078L20.0712 4.59762C20.3379 4.70396 20.6276 4.76389 20.9326 4.76389C22.2338 4.76389 23.2884 3.69762 23.2884 2.38195C23.2884 1.06627 22.2329 0 20.9316 0C19.6304 0 18.5758 1.06627 18.5758 2.38195C18.5758 3.08474 18.8789 3.71406 19.357 4.15004L14.8127 11.3935C14.3222 11.1083 13.7533 10.944 13.1472 10.944C12.0333 10.944 11.0466 11.495 10.4386 12.3418L4.57297 8.91586C4.66189 8.66452 4.71352 8.39481 4.71352 8.11254C4.71352 6.79686 3.65895 5.73059 2.35771 5.73059C1.05648 5.73059 0 6.79783 0 8.1135C0 9.42918 1.05457 10.4955 2.3558 10.4955C3.07574 10.4955 3.72014 10.1677 4.15229 9.65249L10.0332 13.0872C9.88309 13.4709 9.7999 13.8895 9.7999 14.3274C9.7999 15.2893 10.1976 16.1574 10.8353 16.7732L5.552 22.7271C5.30629 22.5744 5.02998 22.4632 4.72977 22.409C3.44861 22.179 2.22577 23.0432 1.99822 24.3386C1.77068 25.634 2.62542 26.8704 3.90658 27.1004C5.18774 27.3305 6.41057 26.4663 6.63812 25.1709C6.75954 24.4807 6.5712 23.8088 6.17729 23.2955L11.5142 17.2807C11.997 17.5543 12.5534 17.7109 13.1472 17.7109C13.6749 17.7109 14.174 17.5872 14.6176 17.3667L19.2757 24.8616C18.8043 25.2975 18.508 25.9211 18.508 26.6181C18.508 27.9337 19.5625 29 20.8638 29C22.165 29 23.2196 27.9337 23.2196 26.6181C23.2196 25.3024 22.165 24.2361 20.8638 24.2361C20.553 24.2361 20.2576 24.298 19.987 24.4082L15.3204 16.8989C15.8596 16.4329 16.2506 15.7959 16.4113 15.0708L23.297 15.7408C23.384 16.9762 24.4003 17.9516 25.6442 17.9516C26.8881 17.9516 28 16.8853 28 15.5697C28 14.254 26.9454 13.1877 25.6442 13.1877V13.1887Z" fill="white"></path></svg>