<svg xmlns="http://www.w3.org/2000/svg" width="20" height="24" viewBox="0 0 20 24" fill="none"><path d="M20 21.9589H1.81068V0.727051H0V23.9998H20V21.9589Z" fill="white"></path><path d="M7.33334 15.2729H3.33334V20.3639H7.33334V15.2729Z" fill="white"></path><path d="M13.3333 10.9092H10V20.3637H13.3333V10.9092Z" fill="white"></path><path d="M19.3333 7.27295H16V20.3639H19.3333V7.27295Z" fill="white"></path><path d="M3.61611 12.3636C3.71612 12.3469 6.08689 11.9508 8.95079 10.7233C12.6147 9.1537 15.4114 6.91642 17.077 4.23466L18.6667 5.36725L18.5994 2.68362L18.5322 0L16.2166 0.983809L13.901 1.96762L15.501 3.10765C11.9319 8.85614 3.45576 10.3272 3.33334 10.3477L3.47473 11.3556L3.61611 12.3636Z" fill="white"></path></svg>