<svg xmlns="http://www.w3.org/2000/svg" width="34" height="20" viewBox="0 0 34 20" fill="none"><path fill-rule="evenodd" clip-rule="evenodd" d="M1.60614 1.63525H3.8585C4.50603 1.63525 5.03593 2.15423 5.03593 2.78841V14.9903C5.03593 15.6245 4.50603 16.1435 3.8585 16.1435H1.60614C0.958611 16.1435 0.428711 15.6245 0.428711 14.9903V2.78868C0.428711 2.1545 0.958611 1.63553 1.60614 1.63553V1.63525Z" fill="white"></path><path fill-rule="evenodd" clip-rule="evenodd" d="M6.05231 3.68388C7.48236 4.06406 9.84983 2.531 10.978 2.0625C9.54847 3.20879 8.67296 3.65755 7.81033 4.72951C7.02836 5.70107 7.40506 6.53905 9.04574 7.46948C11.0651 8.6144 14.1817 7.60059 16.6895 5.21035L26.0734 15.3627C25.5368 16.69 24.317 17.4614 22.985 16.4986C23.4712 17.5521 21.3331 18.9135 20.2291 17.8223C20.7542 18.8671 18.5548 20.296 17.1771 18.6888C17.448 19.9879 16.0882 20.1906 15.1777 19.8601C12.9329 19.0454 9.40227 14.7883 6.05231 14.0354V3.68388Z" fill="white"></path><path fill-rule="evenodd" clip-rule="evenodd" d="M28.3769 3.68378C25.9321 4.33359 23.9422 2.21216 20.3819 0.862615C18.425 0.120911 15.8444 -0.623535 14.0234 0.836831L11.587 2.79066C11.1549 3.1371 10.7124 3.46571 10.2668 3.79514C9.93657 4.03927 9.60384 4.28532 9.29492 4.55522C9.02801 4.78865 8.78659 5.03662 8.56505 5.31202C8.27433 5.67327 8.48075 5.9728 8.80591 6.21885C9.92229 7.06231 11.0507 7.1767 12.3993 6.76662C13.7475 6.35654 15.0149 5.49278 16.0189 4.53575L16.7331 3.85494L26.7194 14.6593C27.2723 14.3779 27.8268 14.159 28.3766 14.0355V3.68378H28.3769Z" fill="white"></path><path fill-rule="evenodd" clip-rule="evenodd" d="M30.5702 1.63525H32.8225C33.4701 1.63525 34 2.15423 34 2.78841V14.9903C34 15.6245 33.4701 16.1435 32.8225 16.1435H30.5702C29.9227 16.1435 29.3928 15.6245 29.3928 14.9903V2.78868C29.3928 2.1545 29.9227 1.63553 30.5702 1.63553V1.63525Z" fill="white"></path></svg>