<svg xmlns="http://www.w3.org/2000/svg" width="30" height="34" viewBox="0 0 30 34" fill="none"><path d="M14.9999 5.63771C9.31624 5.63771 4.70752 10.1239 4.70752 15.6592C4.70752 18.8628 6.78292 21.1996 8.65565 23.5476C10.3822 25.7132 11.3455 27.9588 11.3455 27.9588H18.6542C18.6542 27.9588 19.6175 25.7132 21.344 23.5476C23.2168 21.2008 25.2922 18.8628 25.2922 15.6592C25.2922 10.1252 20.6847 5.63771 14.9999 5.63771ZM15.7528 8.81128C11.2595 8.81128 7.61667 12.3583 7.61667 16.7333C7.61667 17.8923 7.87449 18.9939 8.33498 19.9856C7.48584 18.7466 6.98943 17.2591 6.98943 15.658C6.98943 11.3491 10.5758 7.85708 15.0011 7.85708C17.723 7.85708 20.1255 9.17971 21.5724 11.1993C20.0947 9.72675 18.0347 8.81128 15.7528 8.81128Z" fill="white"></path><path d="M10.9038 28.8106V31.1936C10.9038 32.0754 11.7466 34 13.0062 34H16.9928C18.2524 34 19.0951 32.0754 19.0951 31.1936V28.8106H10.9038Z" fill="white"></path><path d="M14.9999 3.33093C14.5151 3.33093 14.1226 2.94876 14.1226 2.47666V0.854278C14.1226 0.382177 14.5151 0 14.9999 0C15.4848 0 15.8773 0.382177 15.8773 0.854278V2.47666C15.8773 2.94876 15.4848 3.33093 14.9999 3.33093Z" fill="white"></path><path d="M26.5791 14.6039C26.5791 14.1318 26.9716 13.7496 27.4564 13.7496H29.1226C29.6075 13.7496 30 14.133 30 14.6039C30 15.0747 29.6075 15.4582 29.1226 15.4582H27.4564C26.9716 15.4582 26.5791 15.0747 26.5791 14.6039Z" fill="white"></path><path d="M0 14.6039C0 14.1318 0.392504 13.7496 0.877362 13.7496H2.54358C3.02844 13.7496 3.42094 14.133 3.42094 14.6039C3.42094 15.0747 3.02844 15.4582 2.54358 15.4582H0.877362C0.392504 15.4582 0 15.0747 0 14.6039Z" fill="white"></path><path d="M23.1875 6.63315C22.8451 6.29968 22.8451 5.75889 23.1875 5.42542L24.3663 4.27764C24.7088 3.94417 25.2642 3.94417 25.6067 4.27764C25.9492 4.61111 25.9492 5.1519 25.6067 5.48537L24.4279 6.63315C24.0854 6.96787 23.53 6.96787 23.1875 6.63315Z" fill="white"></path><path d="M4.3935 24.9314C4.05102 24.598 4.05102 24.0572 4.3935 23.7237L5.57229 22.5772C5.91477 22.2437 6.47018 22.2437 6.81266 22.5772C7.15514 22.9106 7.15514 23.4514 6.81266 23.7849L5.63386 24.9327C5.29138 25.2662 4.73598 25.2662 4.3935 24.9327V24.9314Z" fill="white"></path><path d="M6.81266 6.63315C6.47018 6.96662 5.91477 6.96662 5.57229 6.63315L4.3935 5.48537C4.05102 5.1519 4.05102 4.61111 4.3935 4.27764C4.73598 3.94417 5.29138 3.94417 5.63386 4.27764L6.81266 5.42542C7.15514 5.75889 7.15514 6.29968 6.81266 6.63315Z" fill="white"></path><path d="M25.6052 24.9314C25.2627 25.2649 24.7073 25.2649 24.3648 24.9314L23.186 23.7836C22.8435 23.4501 22.8435 22.9094 23.186 22.5759C23.5285 22.2424 24.0839 22.2424 24.4264 22.5759L25.6052 23.7224C25.9477 24.0559 25.9477 24.5967 25.6052 24.9301V24.9314Z" fill="white"></path></svg>