<svg xmlns="http://www.w3.org/2000/svg" width="32" height="32" viewBox="0 0 32 32" fill="none"><path d="M0.0449633 24.2661L0.949282 26.4476C1.05901 26.7143 1.34468 26.8619 1.62657 26.7995L4.01791 26.2622C4.2298 26.2149 4.45494 26.283 4.59493 26.4476C4.89007 26.7957 5.21169 27.1154 5.55412 27.4068C5.71871 27.5468 5.78682 27.77 5.73952 27.98L5.20223 30.3734C5.1398 30.6553 5.28736 30.941 5.55412 31.0507L7.73546 31.955C8.00221 32.0648 8.30869 31.9683 8.46383 31.7242L9.77679 29.6506C9.8922 29.4671 10.0984 29.3593 10.3141 29.3763C10.7625 29.4123 11.2165 29.4141 11.6706 29.3763C11.8862 29.3593 12.0943 29.469 12.2098 29.6525L13.5208 31.7242C13.6741 31.9683 13.9824 32.0648 14.2492 31.955L16.4305 31.0507C16.6973 30.941 16.8449 30.6553 16.7824 30.3734L16.2451 27.9819C16.1978 27.77 16.2659 27.5468 16.4305 27.4049C16.7786 27.1097 17.0984 26.7881 17.3897 26.4457C17.5297 26.2811 17.753 26.213 17.963 26.2603L20.3562 26.7976C20.6381 26.86 20.9237 26.7124 21.0335 26.4457L21.9378 24.2643C22.0475 23.9975 21.951 23.691 21.707 23.5359L19.6335 22.2247C19.45 22.1093 19.3421 21.9031 19.3592 21.6874C19.3951 21.239 19.397 20.785 19.3592 20.3309C19.3421 20.1152 19.4519 19.9071 19.6354 19.7917L21.707 18.4806C21.951 18.3273 22.0475 18.0189 21.9378 17.7522L21.0335 15.5707C20.9237 15.304 20.6381 15.1564 20.3562 15.2188L17.9648 15.7561C17.753 15.8034 17.5278 15.7353 17.3878 15.5707C17.0927 15.2226 16.7711 14.9029 16.4286 14.6115C16.264 14.4715 16.1959 14.2483 16.2432 14.0383L16.7805 11.6449C16.843 11.363 16.6954 11.0774 16.4286 10.9676L14.2473 10.0633C13.9806 9.95354 13.6741 10.05 13.5189 10.2941L12.2079 12.3677C12.0925 12.5512 11.8862 12.659 11.6706 12.642C11.2222 12.606 10.7681 12.6042 10.3141 12.642C10.0984 12.659 9.89031 12.5493 9.7749 12.3658L8.46383 10.2941C8.31059 10.05 8.00221 9.95354 7.73546 10.0633L5.55412 10.9676C5.28736 11.0774 5.1398 11.363 5.20223 11.6449L5.73952 14.0364C5.78682 14.2483 5.71871 14.4734 5.55412 14.6134C5.20601 14.9086 4.88628 15.2302 4.59493 15.5726C4.45494 15.7372 4.23169 15.8053 4.0217 15.758L1.62847 15.2207C1.34658 15.1583 1.0609 15.3059 0.951174 15.5726L0.0449633 17.754C-0.0647657 18.0208 0.0317202 18.3273 0.275773 18.4825L2.34927 19.7936C2.53279 19.909 2.64062 20.1152 2.6236 20.3309C2.58765 20.7793 2.58576 21.2333 2.6236 21.6874C2.64062 21.9031 2.53089 22.1112 2.34738 22.2266L0.275773 23.5377C0.0317202 23.691 -0.0647657 23.9994 0.0449633 24.2661ZM7.34005 22.5218C6.50573 20.5068 7.46302 18.1949 9.47788 17.3605C11.4927 16.5262 13.8046 17.4835 14.6389 19.4984C15.4732 21.5134 14.516 23.8253 12.5011 24.6597C10.4862 25.494 8.17437 24.5367 7.34005 22.5218Z" fill="white"></path><path d="M15.726 7.29158V8.98298C15.726 9.18921 15.8755 9.36516 16.0779 9.4011L17.8071 9.70003C17.9604 9.72652 18.0909 9.83247 18.1382 9.98193C18.2385 10.2922 18.3633 10.593 18.5109 10.8806C18.5809 11.0187 18.5658 11.1852 18.4768 11.312L17.4647 12.748C17.3455 12.9164 17.3663 13.1472 17.512 13.2929L18.7077 14.4886C18.8533 14.6342 19.0841 14.6551 19.2525 14.5359L20.6884 13.5237C20.8152 13.4347 20.9817 13.4177 21.1198 13.4896C21.4074 13.6372 21.7063 13.7621 22.0184 13.8623C22.166 13.9096 22.2738 14.0402 22.3003 14.1934L22.5992 15.9227C22.6352 16.127 22.8111 16.2746 23.0174 16.2746H24.7087C24.9149 16.2746 25.0909 16.1251 25.1268 15.9227L25.4257 14.1934C25.4522 14.0402 25.5581 13.9096 25.7076 13.8623C26.0179 13.7621 26.3187 13.6372 26.6063 13.4896C26.7444 13.4196 26.9108 13.4347 27.0376 13.5237L28.4735 14.5359C28.6419 14.6551 28.8727 14.6342 29.0184 14.4886L30.2141 13.2929C30.3597 13.1472 30.3806 12.9164 30.2614 12.748L29.2492 11.312C29.1603 11.1852 29.1433 11.0187 29.2152 10.8806C29.3627 10.593 29.4876 10.2941 29.5879 9.98193C29.6351 9.83436 29.7657 9.72652 29.9189 9.70003L31.6481 9.4011C31.8524 9.36516 32 9.18921 32 8.98298V7.29158C32 7.08536 31.8505 6.90941 31.6481 6.87346L29.9189 6.57453C29.7657 6.54804 29.6351 6.44209 29.5879 6.29263C29.4876 5.98235 29.3627 5.68153 29.2152 5.39395C29.1452 5.25584 29.1603 5.08935 29.2492 4.96259L30.2614 3.5266C30.3806 3.35821 30.3597 3.1274 30.2141 2.98172L29.0184 1.786C28.8727 1.64032 28.6419 1.61951 28.4735 1.7387L27.0376 2.7509C26.9108 2.83982 26.7444 2.85685 26.6063 2.78495C26.3187 2.63738 26.0198 2.51251 25.7076 2.41224C25.56 2.36494 25.4522 2.23439 25.4257 2.08115L25.1268 0.351903C25.0909 0.147572 24.9149 0 24.7087 0H23.0174C22.8111 0 22.6352 0.149464 22.5992 0.351903L22.3003 2.08115C22.2738 2.23439 22.1679 2.36494 22.0184 2.41224C21.7082 2.51251 21.4074 2.63738 21.1198 2.78495C20.9817 2.85495 20.8152 2.83982 20.6884 2.7509L19.2525 1.7387C19.0841 1.61951 18.8533 1.64032 18.7077 1.786L17.512 2.98172C17.3663 3.1274 17.3455 3.35821 17.4647 3.5266L18.4768 4.96259C18.5658 5.08935 18.5828 5.25584 18.5109 5.39395C18.3633 5.68153 18.2385 5.98046 18.1382 6.29263C18.0909 6.4402 17.9604 6.54804 17.8071 6.57453L16.0779 6.87346C15.8736 6.90941 15.726 7.08536 15.726 7.29158ZM21.0309 8.13728C21.0309 6.57453 22.2984 5.30692 23.8611 5.30692C25.4238 5.30692 26.6914 6.57453 26.6914 8.13728C26.6914 9.70003 25.4238 10.9676 23.8611 10.9676C22.2984 10.9676 21.0309 9.70003 21.0309 8.13728Z" fill="white"></path></svg>