<svg xmlns="http://www.w3.org/2000/svg" width="22" height="32" viewBox="0 0 22 32" fill="none"><path d="M7.99011 7.0215C7.99011 7.0215 10.6505 6.14145 12.656 7.25655C12.656 7.25655 15.9418 3.84441 15.3163 2.75938C14.6908 1.67436 13.2916 1.3513 13.2916 1.3513C13.2916 1.3513 13.321 2.37729 12.3981 4.13739C12.3981 4.13739 13.2023 1.3513 12.458 0.823272C11.7137 0.295241 8.25932 0.354283 8.25932 1.08729C8.25932 1.82029 9.01716 3.90456 9.06354 5.33938C9.06354 5.33938 8.0806 2.72931 7.99124 2.5533L7.90189 2.37729C7.90189 2.37729 6.23463 3.03565 6.68141 3.86446C7.1282 4.69438 7.93243 6.26845 7.99124 7.02039L7.99011 7.0215Z" fill="white"></path><path d="M14.0665 9.42489C13.9511 9.42489 13.8335 9.39147 13.7305 9.3224C11.379 7.74054 8.14736 8.74313 8.11569 8.75427C7.80237 8.85453 7.46643 8.6852 7.36577 8.37663C7.26396 8.06805 7.43589 7.73831 7.74921 7.63805C7.90417 7.58904 11.5735 6.45165 14.4035 8.35435C14.675 8.53704 14.7451 8.90243 14.5596 9.16979C14.4443 9.33577 14.2576 9.426 14.0676 9.426L14.0665 9.42489Z" fill="white"></path><path d="M11 9.42627C5.04356 9.42627 0.214844 17.8335 0.214844 23.6998C0.214844 29.5661 5.04356 31.5256 11 31.5256C16.9564 31.5256 21.7852 29.5661 21.7852 23.6998C21.7852 17.8335 16.9564 9.42627 11 9.42627ZM11.8913 23.3021V24.6233H10.1471V23.4024C9.52955 23.3222 8.93911 23.1161 8.53191 22.8309L8.22651 22.6159L8.85315 20.8914L9.38251 21.239C9.78519 21.5041 10.3236 21.6612 10.8224 21.6612C11.3823 21.6612 11.7431 21.4016 11.7431 21.0006C11.7431 20.7444 11.6628 20.4392 10.7059 20.0571C9.58385 19.6237 8.43011 18.9876 8.43011 17.5729C8.43011 16.4789 9.12348 15.62 10.2297 15.2948V14.0092H11.9614V15.1878C12.4433 15.2547 12.8731 15.3995 13.2656 15.6256L13.6276 15.835L12.9738 17.5316L12.4693 17.2476C12.2917 17.1473 11.8766 16.9134 11.2149 16.9134C10.7353 16.9134 10.448 17.1072 10.448 17.4325C10.448 17.6798 10.5295 17.8748 11.6187 18.3181C12.6209 18.7203 13.7724 19.3798 13.7724 20.9182C13.7724 22.0455 13.0315 22.9623 11.8891 23.3021H11.8913Z" fill="white"></path></svg>